<?xml version="1.0" encoding="utf-8"?>
<!DOCTYPE svg PUBLIC "-//W3C//DTD SVG 1.1//EN" "http://www.w3.org/Graphics/SVG/1.1/DTD/svg11.dtd">
<svg version="1.1" xmlns="http://www.w3.org/2000/svg" x="0px" y="0px"
	 viewBox="0 0 794.737 339.474" enable-background="new 0 0 794.737 339.474"
	 xml:space="preserve">
<g id="color_key_1_">
	<polygon id="OXF-069" fill="#88BCE7" points="505.038,197.03 517.028,207.62 506.108,218.459 502.858,218.459 502.858,214.04 
		497.728,214.04 497.728,204.16 505.028,197.04 	"/>
	<polygon id="OXF-066" fill="#88BCE7" points="497.728,210.07 497.728,214.04 502.858,214.04 502.858,218.459 502.858,232.609 
		485.958,232.609 485.958,204.679 493.808,204.679 493.808,209.809 497.728,209.809 	"/>
	<polygon id="OXF-070_1_" fill="#C2CB8B" points="492.468,185.939 505.038,197.03 505.028,197.04 497.728,204.16 497.728,209.809 
		493.808,209.809 493.808,204.679 485.958,204.679 485.958,192.609 492.448,185.959 	"/>
	<polygon id="OXF-031" fill="#998467" points="492.468,185.939 492.448,185.959 485.958,192.609 485.958,204.679 485.808,204.679 
		471.388,204.679 471.388,190.6 471.388,171.919 476.599,171.919 	"/>
	<polygon id="OXF-065" fill="#88BCE7" points="485.958,204.679 485.958,232.609 466.468,232.609 466.468,204.679 471.388,204.679 
		485.808,204.679 	"/>
	<polygon id="OXF-032" fill="#C2CB8B" points="471.388,171.919 471.388,190.6 471.378,190.6 451.288,190.6 441.067,181.62 
		440.929,181.479 450.628,171.919 	"/>
	<polygon id="OXF-060" fill="#88BCE7" points="471.388,190.6 471.388,204.679 466.468,204.679 452.897,204.679 446.099,204.679 
		433.659,204.679 424.958,197.229 440.929,181.479 441.067,181.62 451.288,190.6 471.378,190.6 	"/>
	<polygon id="OXF-064" fill="#53668D" points="466.468,204.679 466.468,232.609 452.897,232.609 452.897,204.719 452.897,204.679 
			"/>
	<polygon id="OXF-063" fill="#53668D" points="452.897,204.68 452.897,204.72 452.897,232.609 441.858,230.809 441.858,230.799 
		441.858,210.04 446.099,210.04 446.099,204.68 	"/>
	<polygon id="OXF-061" fill="#E6007E" points="433.657,204.679 433.657,214.08 420.788,214.08 414.048,208.179 413.948,208.08 
		424.958,197.229 	"/>
	<polygon id="OXF-062" fill="#E6007E" points="441.858,230.799 441.858,230.809 408.368,225.359 408.368,213.589 413.948,208.08 
		414.048,208.179 420.788,214.08 433.657,214.08 433.657,204.679 446.099,204.679 446.099,210.04 441.858,210.04 	"/>
	<polygon id="OXF-016N_x2B_17N" fill="#53668D" points="787.888,234.22 771.237,234.22 771.237,241.961 743.968,241.97 
		743.997,200.08 733.728,189.799 749.228,174.59 783.798,174.529 783.798,182.219 787.888,182.219 	"/>
	<polygon id="OXF-018N" fill="#F8C9DF" points="722.897,212.339 716.878,206.32 733.728,189.799 743.997,200.08 743.968,241.97 
		722.897,241.961 	"/>
	<polygon id="OXF-024" fill="#88BCE7" points="787.888,241.961 787.888,307.22 691.237,307.22 691.237,301.249 676.948,301.249 
		648.929,272.97 682.587,239.95 701.269,258.79 722.897,258.79 722.897,241.961 743.968,241.97 	"/>
	<polygon id="OXF-022N" fill="#88BCE7" points="722.897,241.961 722.897,258.783 701.269,258.79 682.587,239.95 699.827,223.039 
		718.528,241.961 	"/>
	<polygon id="OXF-019N" fill="#88BCE7" points="722.897,241.961 718.528,241.961 699.827,223.039 716.878,206.32 722.897,212.339 
			"/>
	<polygon id="OXF-023N" fill="#88BCE7" points="691.237,301.249 691.237,315.63 652.458,315.63 652.458,301.429 636.378,285.269 
		648.929,272.97 676.948,301.249 	"/>
	<polygon id="OXF-024N" fill="#BC90C1" points="652.458,323.749 623.548,323.749 623.548,291.97 629.548,291.97 636.378,285.269 
		652.458,301.429 	"/>
	<polygon id="leeg_x3F_" fill="#E3E3E3" points="623.548,323.749 623.548,334.579 787.888,334.579 787.888,315.627 652.458,315.63 
		652.458,323.749 	"/>
	<polygon id="Stukje_h_x26_m_x3F_" fill="#88BCE7" points="787.888,23.859 787.888,66.377 753.614,66.377 753.614,56.429 
		772.327,56.429 772.327,39.54 766.259,39.54 766.259,28.199 772.327,28.199 772.327,23.859 	"/>
	<polygon id="OXF-002" fill="#88BCE7" points="753.614,56.429 731.737,56.429 731.737,105.29 731.737,143.449 747.538,160.709 
		787.888,160.709 787.888,66.377 753.614,66.377 	"/>
	<polygon id="OXF-001" fill="#53668D" points="787.888,12.689 787.888,23.859 772.327,23.859 772.327,28.2 766.259,28.2 
		766.259,39.54 772.327,39.54 772.327,56.429 731.737,56.429 731.737,105.29 714.478,105.29 714.478,143.45 652.497,143.45 
		652.497,90.459 640.827,90.459 640.827,49.87 634.509,49.87 634.509,12.689 	"/>
	<rect id="OXF-003" x="714.478" y="105.29" fill="#88BCE7" width="17.26" height="38.16"/>
	<polygon id="OXF-004" fill="#F8C9DF" points="652.497,90.459 652.497,143.449 627.458,143.449 627.458,105.29 634.509,105.29 
		634.509,96.779 640.827,96.779 640.827,90.459 	"/>
	<polygon id="WC_2_" fill="#FFFFFF" points="640.827,90.549 640.827,96.779 625.487,96.779 625.487,80.359 640.827,80.359 	"/>
	<path id="OXF-032E" fill="#E6007E" d="M467.935,154.854c0,3.574-2.896,6.471-6.471,6.471s-6.471-2.897-6.471-6.471
		c0-3.574,2.896-6.471,6.471-6.471S467.935,151.281,467.935,154.854"/>
	<path id="OXF-031E" fill="#53668D" d="M176.306,155.999c0,3.573-2.897,6.471-6.471,6.471c-3.573,0-6.47-2.898-6.47-6.471
		c0-3.574,2.897-6.471,6.47-6.471C173.409,149.528,176.306,152.425,176.306,155.999"/>
	<polygon id="OXF-033" fill="#88BCE7" points="430.317,168.129 430.317,176.12 417.827,188.569 410.958,182.319 410.948,182.319 
		410.948,182.239 410.948,171.149 417.778,171.149 425.558,163.37 	"/>
	<polygon id="OXF-034" fill="#88BCE7" points="425.558,163.37 417.778,171.149 410.948,171.149 410.948,153.11 415.298,153.11 	
		"/>
	<polygon id="OXF-035" fill="#BC90C1" points="410.948,182.239 410.948,182.319 399.888,182.319 399.888,153.109 410.948,153.109 
		410.948,171.149 	"/>
	<polygon id="OXF-058-59" fill="#88BCE7" points="410.958,182.319 410.948,182.319 399.888,182.319 380.038,182.319 380.038,214.07 
		392.238,214.07 399.898,206.429 417.827,188.569 	"/>
	<polygon id="OXF-036" fill="#00A984" points="399.888,153.109 399.888,182.319 380.037,182.319 380.037,153.159 380.037,153.109 
			"/>
	<polygon id="OXF-057" fill="#88BCE7" points="380.038,182.319 380.038,214.069 364.627,214.069 358.218,207.5 358.248,207.469 
		361.018,204.969 361.018,182.449 361.018,182.319 	"/>
	<polygon id="OXF-037" fill="#00A984" points="380.038,153.16 380.038,182.32 361.018,182.32 359.158,182.32 359.158,176.05 
		369.348,176.05 369.348,153.11 380.038,153.11 	"/>
	<polygon id="OXF-056" fill="#53668D" points="359.158,182.319 361.018,182.319 361.018,182.449 361.018,204.969 358.248,207.469 
		358.218,207.5 338.498,187.29 338.588,187.199 343.498,182.319 	"/>
	<polygon id="OXF-055" fill="#E6007E" points="359.158,176.049 359.158,182.319 343.498,182.319 338.588,187.199 338.498,187.29 
		327.608,176.119 327.608,168.049 332.888,162.77 338.038,167.919 359.158,167.919 	"/>
	<polygon id="OXF-038" fill="#E6007E" points="359.158,153.14 359.158,167.919 338.038,167.919 332.888,162.77 342.548,153.11 	
		"/>
	<rect id="Gommista_geen_code" x="25.406" y="206.44" fill="#BC90C1" width="46.084" height="17.408"/>
	<rect id="Car_wash_geen_code" x="20.283" y="274.399" fill="#BC90C1" width="51.207" height="19.346"/>
	<polygon id="OXF-D005" fill="#FFED00" points="189.558,259.38 189.558,275.499 134.018,333.999 77.328,333.95 77.328,274.401 
		145.357,274.47 145.357,268.8 172.678,242.38 	"/>
	<polygon id="OXF-004" fill="#88BCE7" points="162.388,232.049 172.678,242.38 145.358,268.8 145.358,274.47 77.328,274.399 
		77.328,206.44 91.358,206.44 91.358,195.099 105.667,195.099 105.667,180.929 91.358,180.93 91.358,166.75 142.518,166.75 
		142.518,183.76 148.188,183.759 148.188,192.259 162.368,192.259 162.388,192.259 	"/>
	<rect id="OXF-003" x="148.188" y="183.759" fill="#BC90C1" width="14.18" height="8.5"/>
	<rect id="OXF-002" x="142.518" y="175.26" fill="#BC90C1" width="19.857" height="8.5"/>
	<polygon id="OXF-001" fill="#C2CB8B" points="162.368,169.59 162.368,175.26 142.518,175.26 142.518,161.08 145.358,161.08 
		145.358,155.41 147.092,155.41 	"/>
	<polygon id="Grijs_1_" fill="#E3E3E3" points="145.358,155.41 145.358,161.08 142.518,161.08 142.518,166.75 91.358,166.75 
		91.358,155.41 	"/>
	<rect id="Grijs" x="91.358" y="180.929" fill="#E3E3E3" width="14.31" height="14.17"/>
	<polygon id="OXF-054" fill="#E6007E" points="305.108,168.759 318.028,181.679 284.677,181.679 284.698,172.389 284.698,172.339 
		301.028,172.339 305.028,168.839 	"/>
	<polygon id="OXF-050" fill="#88BCE7" points="316.168,230.83 308.497,232.045 284.677,232.045 284.677,206.25 311.708,206.241 
		311.708,211.559 316.168,211.559 	"/>
	<polygon id="OXF-039" fill="#88BCE7" points="289.248,152.899 305.108,168.759 305.028,168.839 301.028,172.339 284.698,172.339 
		284.698,152.899 	"/>
	<polygon id="OXF-047_x2B_48" fill="#88BCE7" points="260.739,190.544 260.739,206.241 252.138,206.214 252.138,232.045 
		200.301,232.045 194.309,226.225 216.148,206.866 216.148,190.544 	"/>
	<polygon id="OXF-041" fill="#998467" points="252.538,152.877 252.538,182.418 238.898,182.418 238.898,190.544 231.708,190.533 
		231.708,152.877 	"/>
	<polygon id="OXF-042" fill="#88BCE7" points="231.708,152.899 231.708,190.533 216.148,190.544 216.148,152.899 	"/>
	<polygon id="OXF-046" fill="#88BCE7" points="216.148,190.544 216.148,206.866 194.308,226.225 189.788,221.955 180.488,213.12 
		201.968,195.335 201.968,190.544 	"/>
	<polygon id="OXF-043" fill="#88BCE7" points="201.968,190.544 201.968,175.501 186.078,158.874 192.078,152.899 216.148,152.899 
		216.148,190.544 	"/>
	<polygon id="OXF-045" fill="#88BCE7" points="201.968,190.544 201.968,195.335 180.488,213.12 178.857,211.549 178.857,190.544 	
		"/>
	<polygon id="OXF-044" fill="#998467" points="201.968,190.544 201.968,175.501 186.078,158.874 178.857,166.014 178.857,190.544 
			"/>
	<path id="OXF-022" fill="#88BCE7" d="M583.827,271.39c2.861,2.721,4.621,6.48,4.621,10.629c0,8.311-7.061,15.041-15.77,15.041
		h-4.861v-0.119v-28.82l6.311-5.961L583.827,271.39z"/>
	<polygon id="OXF-022B" fill="#E30613" points="560.259,248.95 574.128,262.159 567.819,268.12 567.819,296.94 567.819,297.06 
		530.038,297.06 530.038,265.669 544.907,265.669 544.907,249.089 544.907,248.95 	"/>
	<polygon id="OXF-021" fill="#00A984" points="544.907,249.089 544.907,265.669 530.038,265.669 530.038,248.95 544.907,248.95 	
		"/>
	<polygon id="OXF-020" fill="#00A984" points="530.038,265.669 530.038,297.06 508.487,297.06 508.487,248.95 530.038,248.95 	"/>
	<rect id="OXF-032N" x="499.519" y="303.128" fill="#FFED00" width="23.299" height="16.881"/>
	<polygon id="OXF-019" fill="#88BCE7" points="508.487,281.339 500.278,281.339 500.278,278.46 488.615,278.46 488.615,248.95 
		508.487,248.95 	"/>
	<rect id="OXF-00C" x="10.456" y="229.627" fill="#C6C6C6" width="61.034" height="39.962"/>
	<path id="OXF-024E25E26E" fill="#FFED00" d="M427.968,273.509v-0.01v-12.49h-22.61c1.467,3.762,2.743,7.922,3.723,12.51h-0.113
		l0.115,0.014c0.002,0.006,0.004,0.012,0.004,0.018c1.221,5.68,1.99,12,2.16,18.99l9.271-0.038v4.558h22.426v-23.551H427.968z"/>
	<path id="OXF-016" fill="#FFED00" d="M427.968,248.769v12.24h-22.61c-1.84-4.709-3.98-8.789-6.25-12.25L427.968,248.769z"/>
	<path id="OXF-012" fill="#FFED00" d="M359.927,248.872c-2.35,3.449-4.469,7.27-6.409,12.01h-23.154l0.034-12.021L359.927,248.872
		z"/>
	<path id="OXF-021E" fill="#FFED00" d="M330.398,260.882h23.091c-1.55,3.779-2.9,8.003-3.94,12.683h-19.151V260.882z"/>
	<path id="OXF-022E-23E" fill="#FFED00" d="M330.398,273.564v-4.359h-14.58v14.255h15.407v13.721h15.984l0.01-0.139
		c-0.01-0.74-0.01-1.5,0-2.262c0.03-3.959,0.26-7.699,0.67-11.229c0.39-3.551,0.96-6.868,1.66-9.987H330.398z"/>
	<polygon id="OXF-009" fill="#C2CB8B" points="296.618,248.86 296.618,269.46 284.818,269.46 284.818,248.839 	"/>
	<rect id="OXF-008" x="259.178" y="248.86" fill="#BC90C1" width="16.33" height="21.469"/>
	<rect id="le_news_geen_code" x="250.896" y="297.13" fill="#BC90C1" width="23.7" height="15.41"/>
	<polygon id="OXF-007" fill="#BC90C1" points="245.608,292.002 245.608,248.88 245.608,248.86 259.178,248.86 259.178,270.329 
		259.178,297.13 250.918,297.13 	"/>
	<path id="OXF-006_x2B_6A" fill="#88BAE6" d="M235.228,248.86c-1.77,0-3.48,0.27-5.06,0.77c-5.72,1.799-9.81,6.57-9.81,12.17
		c0,3.279,1.41,6.279,3.73,8.57l4.46,4.439l17.06,17.192V248.88v-0.02H235.228z"/>
	<path id="Lombardina_geen_code_wrs_OXF-026N" fill="#FFED00" d="M348.794,313.007l-0.03-0.033
		c-0.689-3.703-1.221-7.621-1.439-11.889l-0.036-0.023h-16.064v11.945H348.794z"/>
	<path id="OXF-027N" fill="#FFED00" d="M355.529,313.021l-0.193,0.006h-1.979l-4.563-0.02h-17.569v-8.092h-13.086v29.76H361.5
		C358.48,329.106,356.107,322.099,355.529,313.021z"/>
	<polygon id="OXF-071" fill="#C6C6C6" points="622.087,6.729 622.087,133.35 591.009,133.35 590.968,133.35 590.968,127.35 
		77.328,127.35 77.328,6.729 		"/>
	<polygon id="OXF-019E_x2B_20E" fill="#FFED00" points="613.657,133.35 613.657,139.35 572.438,139.35 572.438,136.86 
		570.048,136.86 570.048,127.35 590.968,127.35 590.968,133.35 591.009,133.35 	"/>
	<polygon id="OXF-018E" fill="#E6007E" points="572.438,136.859 572.438,141.83 550.147,141.83 550.147,127.349 570.048,127.349 
		570.048,136.859 	"/>
	<polygon id="OXF-017E" fill="#BC90C1" points="550.147,127.35 550.147,141.83 529.368,141.83 529.368,141.689 529.368,127.35 	
		"/>
	<polygon id="OXF-016E" fill="#FFFFFF" points="529.368,127.35 529.368,141.83 508.589,141.83 508.589,141.689 508.589,127.35 	
		"/>
	<polygon id="OXF-015N" fill="#88BCE7" points="708.108,184.259 708.108,189.189 686.888,209.95 686.849,209.91 676.938,200.11 
		676.938,184.259 	"/>
	<polygon id="OXF-010N" fill="#88BCE7" points="707.958,172.56 707.958,175.479 685.567,175.479 685.567,175.29 685.567,158.56 
		685.567,158.54 700.718,158.54 	"/>
	<polygon id="OXF-14N" fill="#00A984" points="686.888,209.95 669.567,226.91 669.448,226.789 656.778,213.959 651.118,213.959 
		636.948,213.959 636.948,199.129 636.948,184.26 656.659,184.26 676.938,184.26 676.938,200.11 686.849,209.91 	"/>
	<polygon id="OXF-009N" fill="#E6007E" points="685.567,175.29 685.567,175.479 668.837,175.479 668.837,175.39 668.837,158.56 
		668.837,158.54 685.567,158.54 685.567,158.56 	"/>
	<polygon id="OXF-013N" fill="#88BCE7" points="669.567,226.91 651.118,244.96 651.118,213.959 656.778,213.959 669.448,226.789 	
		"/>
	<polygon id="OXF-08N" fill="#00A984" points="668.837,175.39 668.837,175.479 656.657,175.479 647.429,175.479 647.429,170.49 
		647.429,170.4 656.817,170.4 656.817,158.54 668.837,158.54 668.837,158.56 	"/>
	<polygon id="OXF-007N" fill="#00A67A" points="636.948,184.259 628.878,184.259 628.878,158.689 644.798,158.689 
		644.798,170.399 647.429,170.399 647.429,170.489 647.429,175.479 656.657,175.479 656.657,184.259 	"/>
	<polygon id="OXF-011N_x2B_12N" fill="#88BCE7" points="651.118,213.959 651.118,244.96 622.448,244.96 622.448,199.129 
		636.948,199.129 636.948,213.959 	"/>
	<polygon id="OXF-006N" fill="#88BCE7" points="636.948,184.259 636.948,199.129 622.448,199.129 612.759,199.129 
		612.759,198.989 612.759,162.539 612.759,158.689 628.878,158.689 628.878,184.259 	"/>
	<polygon id="OXF-001E" fill="#88BCE7" points="622.448,199.129 622.448,244.96 603.778,244.96 603.778,244.79 603.778,199.129 
		612.759,199.129 	"/>
	<polygon id="OXF-002E" fill="#88BCE7" points="590.108,214.16 590.108,204.379 590.108,199.129 603.778,199.129 603.778,244.79 
		603.778,244.96 580.407,244.96 579.218,243.829 590.108,233.13 	"/>
	<polygon id="OXF-003E" fill="#00A984" points="590.108,214.16 590.108,233.13 579.218,243.829 566.708,232.029 584.929,214.16 	
		"/>
	<polygon id="OXF-004E" fill="#E6007E" points="590.108,204.29 590.108,214.16 584.929,214.16 566.708,232.029 554.929,220.9 
		554.948,220.879 572.028,204.29 	"/>
	<polygon id="OXF-005E" fill="#C2CB8B" points="571.938,191.739 590.067,191.739 590.108,191.739 590.108,199.129 590.108,204.29 
		572.028,204.29 554.948,220.879 554.929,220.9 541.067,207.82 557.499,191.739 	"/>
	<polygon id="OXF-012E_1_" fill="#88BCE7" points="557.497,184.729 557.497,156.24 557.497,156.229 571.938,156.229 
		571.938,162.54 571.938,191.74 557.497,191.74 	"/>
	<polygon id="OXF-006E" fill="#88BCE7" points="557.497,184.729 557.497,191.74 541.067,207.82 526.769,194.319 536.358,184.729 
		544.048,184.729 	"/>
	<polygon id="OXF-011E" fill="#998467" points="557.497,156.239 557.497,184.729 544.048,184.729 544.048,156.349 
		544.048,156.229 557.497,156.229 	"/>
	<polygon id="OXF-010E" fill="#88BCE7" points="544.048,156.35 544.048,184.729 536.358,184.729 529.276,177.479 529.276,156.26 
		529.276,156.229 544.048,156.229 	"/>
	<polygon id="OXF-007E" fill="#88BCE7" points="529.278,177.479 536.358,184.729 526.769,194.319 513.028,181.339 
		517.118,177.479 	"/>
	<polygon id="OXF-009E" fill="#00A984" points="529.278,156.259 529.278,177.479 517.118,177.479 517.118,156.229 
		529.278,156.229 	"/>
	<path id="OXF-067_x2B_68" fill="#88BCE7" d="M531.573,220.283l-0.15-0.049l-14.395-12.615l-10.92,10.839h-3.25v14.15h10.949
		l0.066,0.023h13.34l-0.041,0.041c3.91,0,6.611-3.141,6.611-7.141C533.784,223.463,532.935,221.604,531.573,220.283z"/>
	<polyline id="Gedeelte_NAU_kunnen_zijn" fill="#00A984" points="656.657,177.479 647.429,177.479 647.429,172.49 	"/>
	<polygon id="Pin_automaat" fill="#BC90C1" points="507.829,176.422 513.028,181.339 517.118,177.479 517.114,174.49 
		509.972,174.49 	"/>
	<path id="OXF-008E" fill="#E6007E" d="M503.778,156.229l0.039-0.04c-3.91,0-6.609,3.14-6.609,7.14c0,2.07,0.85,3.93,2.209,5.25
		l0.15,0.05l8.262,7.793l2.143-1.932h7.143l0.004,2.989v-21.25H503.778z"/>
	<path id="OXF-026N" fill="#FFED00" d="M399.383,334.776c4.624-7.135,5.681-21.666,5.681-21.666l4.484-0.012v-3.912h11.236
		l0.023-8.736h8.189v4.459h11.477v29.885L399.383,334.776z"/>
	<polygon id="OXF-13E14E" fill="#88BCE7" points="572.348,159.451 572.651,191.353 600.447,191.09 600.523,199.168 612.955,199.05 
		612.575,159.071 	"/>
	<path id="Area_tavoli_geen_code" fill="#FFED00" d="M385.947,298.46c0,0,2.88,7.521,3.667,11.332
		c1.185,5.74,1.106,10.182-1.924,17.193c-1.636,3.786-5.409,7.141-5.409,7.141h8.333c6.667,0,9-17,9.667-24.666h5l1.795-11H385.947z
		"/>
	<polygon id="Area_Tavolli_geen_code" fill="#FFED00" points="403.947,277.126 381.947,277.126 384.947,261.126 400.947,261.126 	
		"/>
	<circle id="OXF-070" fill="#FFED00" cx="387.947" cy="232.793" r="6.333"/>
	
		<rect id="OXF-005_x2F_A" x="311.611" y="153.793" transform="matrix(0.7071 -0.7071 0.7071 0.7071 -19.9645 271.3874)" fill="#00A984" width="12" height="12"/>
	<rect id="OXF-018" x="442.944" y="248.77" fill="#88BCE7" width="41.453" height="53.691"/>
	<rect id="WC" x="492.829" y="281.339" fill="#FFFFFF" width="15.658" height="15.721"/>
	<rect id="OXF-017" x="427.968" y="248.771" fill="#00A984" width="14.977" height="24.729"/>
	<polygon id="OXF-040" fill="#F8C9DF" points="276.031,172.344 276.031,152.877 260.739,152.877 253.484,152.877 252.538,152.877 
		252.538,182.418 238.898,182.418 238.898,190.544 284.677,190.544 284.677,172.344 	"/>
	<polygon id="OXF-049" fill="#F8C9DF" points="295.286,190.533 260.739,190.533 260.739,206.203 252.138,206.203 252.138,232.034 
		284.677,232.034 284.677,206.23 295.292,206.23 	"/>
	<polygon id="OXF-051" fill="#88BCE7" points="331.578,228.42 316.168,230.83 316.168,211.559 311.708,211.559 311.708,206.241 
		331.578,206.241 	"/>
	<polygon id="OXF-053" fill="#88BCE7" points="329.086,192.734 318.028,181.679 284.677,181.679 284.677,190.543 295.286,190.533 
		295.292,206.241 322.981,206.241 322.981,198.672 	"/>
	<polygon id="OXF-052" fill="#88BCE7" points="329.086,192.734 322.981,198.672 322.981,206.241 331.578,206.241 331.578,228.418 
		350.008,225.537 350.008,213.649 	"/>
	<rect id="OXF-011" x="315.818" y="248.86" fill="#88BCE7" width="14.58" height="20.359"/>
	<rect id="OXF-010" x="296.618" y="247.86" fill="#88BCE7" width="19.2" height="34.6"/>
	<rect id="WC_1_" x="259.178" y="280.752" fill="#FFFFFF" width="15.419" height="16.378"/>
</g>
<g id="outlines_1_">
	<polygon fill="none" stroke="#FFFFFF" stroke-width="0.5" stroke-linejoin="round" points="505.038,197.03 517.028,207.62 
		506.108,218.459 502.858,218.459 502.858,214.04 497.728,214.04 497.728,204.16 505.028,197.04 	"/>
	<polygon fill="none" stroke="#FFFFFF" stroke-width="0.5" stroke-linejoin="round" points="497.728,210.07 497.728,214.04 
		502.858,214.04 502.858,218.459 502.858,232.609 485.958,232.609 485.958,204.679 493.808,204.679 493.808,209.809 
		497.728,209.809 	"/>
	<polygon fill="none" stroke="#FFFFFF" stroke-width="0.5" stroke-linejoin="round" points="492.468,185.939 505.038,197.03 
		505.028,197.04 497.728,204.16 497.728,209.809 493.808,209.809 493.808,204.679 485.958,204.679 485.958,192.609 492.448,185.959 
			"/>
	<polygon fill="none" stroke="#FFFFFF" stroke-width="0.5" stroke-linejoin="round" points="492.468,185.939 492.448,185.959 
		485.958,192.609 485.958,204.679 485.808,204.679 471.388,204.679 471.388,190.6 471.388,171.919 476.599,171.919 	"/>
	<polygon fill="none" stroke="#FFFFFF" stroke-width="0.5" stroke-linejoin="round" points="485.958,204.679 485.958,232.609 
		466.468,232.609 466.468,204.679 471.388,204.679 485.808,204.679 	"/>
	<polygon fill="none" stroke="#FFFFFF" stroke-width="0.5" stroke-linejoin="round" points="471.388,171.919 471.388,190.6 
		471.378,190.6 451.288,190.6 441.067,181.62 440.929,181.479 450.628,171.919 	"/>
	<polygon fill="none" stroke="#FFFFFF" stroke-width="0.5" stroke-linejoin="round" points="471.388,190.6 471.388,204.679 
		466.468,204.679 452.897,204.679 446.099,204.679 433.659,204.679 424.958,197.229 440.929,181.479 441.067,181.62 451.288,190.6 
		471.378,190.6 	"/>
	<polygon fill="none" stroke="#FFFFFF" stroke-width="0.5" stroke-linejoin="round" points="466.468,204.679 466.468,232.609 
		452.897,232.609 452.897,204.719 452.897,204.679 	"/>
	<polygon fill="none" stroke="#FFFFFF" stroke-width="0.5" stroke-linejoin="round" points="452.897,204.68 452.897,204.72 
		452.897,232.609 441.858,230.809 441.858,230.799 441.858,210.04 446.099,210.04 446.099,204.68 	"/>
	<polygon fill="none" stroke="#FFFFFF" stroke-width="0.5" stroke-linejoin="round" points="433.657,204.679 433.657,214.08 
		420.788,214.08 414.048,208.179 413.948,208.08 424.958,197.229 	"/>
	<polygon fill="none" stroke="#FFFFFF" stroke-width="0.5" stroke-linejoin="round" points="441.858,230.799 441.858,230.809 
		408.368,225.359 408.368,213.589 413.948,208.08 414.048,208.179 420.788,214.08 433.657,214.08 433.657,204.679 446.099,204.679 
		446.099,210.04 441.858,210.04 	"/>
	<polygon fill="none" stroke="#FFFFFF" stroke-width="0.5" stroke-linejoin="round" points="787.888,234.22 771.237,234.22 
		771.237,241.961 743.968,241.97 743.997,200.08 733.728,189.799 749.228,174.59 783.798,174.529 783.798,182.219 787.888,182.219 	
		"/>
	<polygon fill="none" stroke="#FFFFFF" stroke-width="0.5" stroke-linejoin="round" points="722.897,212.339 716.878,206.32 
		733.728,189.799 743.997,200.08 743.968,241.97 722.897,241.961 	"/>
	<polygon fill="none" stroke="#FFFFFF" stroke-width="0.5" stroke-linejoin="round" points="787.888,241.961 787.888,307.22 
		691.237,307.22 691.237,301.249 676.948,301.249 648.929,272.97 682.587,239.95 701.269,258.79 722.897,258.79 722.897,241.961 
		743.968,241.97 	"/>
	<polygon fill="none" stroke="#FFFFFF" stroke-width="0.5" stroke-linejoin="round" points="722.897,241.961 722.897,258.783 
		701.269,258.79 682.587,239.95 699.827,223.039 718.528,241.961 	"/>
	<polygon fill="none" stroke="#FFFFFF" stroke-width="0.5" stroke-linejoin="round" points="722.897,241.961 718.528,241.961 
		699.827,223.039 716.878,206.32 722.897,212.339 	"/>
	<polygon fill="none" stroke="#FFFFFF" stroke-width="0.5" stroke-linejoin="round" points="691.237,301.249 691.237,315.63 
		652.458,315.63 652.458,301.429 636.378,285.269 648.929,272.97 676.948,301.249 	"/>
	<polygon fill="none" stroke="#FFFFFF" stroke-width="0.5" stroke-linejoin="round" points="652.458,323.749 623.548,323.749 
		623.548,291.97 629.548,291.97 636.378,285.269 652.458,301.429 	"/>
	<polygon fill="none" stroke="#FFFFFF" stroke-width="0.5" stroke-linejoin="round" points="623.548,323.749 623.548,334.579 
		787.888,334.579 787.888,315.627 652.458,315.63 652.458,323.749 	"/>
	<polygon fill="none" stroke="#FFFFFF" stroke-width="0.5" stroke-linejoin="round" points="787.888,23.859 787.888,66.377 
		753.614,66.377 753.614,56.429 772.327,56.429 772.327,39.54 766.259,39.54 766.259,28.199 772.327,28.199 772.327,23.859 	"/>
	<polygon fill="none" stroke="#FFFFFF" stroke-width="0.5" stroke-linejoin="round" points="753.614,56.429 731.737,56.429 
		731.737,105.29 731.737,143.449 747.538,160.709 787.888,160.709 787.888,66.377 753.614,66.377 	"/>
	<polygon fill="none" stroke="#FFFFFF" stroke-width="0.5" stroke-linejoin="round" points="787.888,12.689 787.888,23.859 
		772.327,23.859 772.327,28.2 766.259,28.2 766.259,39.54 772.327,39.54 772.327,56.429 731.737,56.429 731.737,105.29 
		714.478,105.29 714.478,143.45 652.497,143.45 652.497,90.459 640.827,90.459 640.827,49.87 634.509,49.87 634.509,12.689 	"/>
	
		<rect x="714.478" y="105.29" fill="none" stroke="#FFFFFF" stroke-width="0.5" stroke-linejoin="round" width="17.26" height="38.16"/>
	<polygon fill="none" stroke="#FFFFFF" stroke-width="0.5" stroke-linejoin="round" points="652.497,90.459 652.497,143.449 
		627.458,143.449 627.458,105.29 634.509,105.29 634.509,96.779 640.827,96.779 640.827,90.459 	"/>
	<polygon fill="none" stroke="#FFFFFF" stroke-width="0.5" stroke-linejoin="round" points="640.827,90.549 640.827,96.779 
		625.487,96.779 625.487,80.359 640.827,80.359 	"/>
	<path fill="none" stroke="#FFFFFF" stroke-width="0.5" stroke-linejoin="round" d="M467.935,154.854
		c0,3.574-2.896,6.471-6.471,6.471s-6.471-2.897-6.471-6.471c0-3.574,2.896-6.471,6.471-6.471S467.935,151.281,467.935,154.854"/>
	<path fill="none" stroke="#FFFFFF" stroke-width="0.5" stroke-linejoin="round" d="M176.306,155.999
		c0,3.573-2.897,6.471-6.471,6.471c-3.573,0-6.47-2.898-6.47-6.471c0-3.574,2.897-6.471,6.47-6.471
		C173.409,149.528,176.306,152.425,176.306,155.999"/>
	<polygon fill="none" stroke="#FFFFFF" stroke-width="0.5" stroke-linejoin="round" points="430.317,168.129 430.317,176.12 
		417.827,188.569 410.958,182.319 410.948,182.319 410.948,182.239 410.948,171.149 417.778,171.149 425.558,163.37 	"/>
	<polygon fill="#53668D" stroke="#FFFFFF" stroke-width="0.5" stroke-linejoin="round" points="425.558,163.37 417.778,171.149 
		410.948,171.149 410.948,153.11 415.298,153.11 	"/>
	<polygon fill="#00A984" stroke="#FFFFFF" stroke-width="0.5" stroke-linejoin="round" points="410.948,182.239 410.948,182.319 
		399.888,182.319 399.888,153.109 410.948,153.109 410.948,171.149 	"/>
	<polygon fill="none" stroke="#FFFFFF" stroke-width="0.5" stroke-linejoin="round" points="410.958,182.319 410.948,182.319 
		399.888,182.319 380.038,182.319 380.038,214.07 392.238,214.07 399.898,206.429 417.827,188.569 	"/>
	<polygon fill="none" stroke="#FFFFFF" stroke-width="0.5" stroke-linejoin="round" points="399.888,153.109 399.888,182.319 
		380.037,182.319 380.037,153.159 380.037,153.109 	"/>
	<polygon fill="none" stroke="#FFFFFF" stroke-width="0.5" stroke-linejoin="round" points="380.038,182.319 380.038,214.069 
		364.627,214.069 358.218,207.5 358.248,207.469 361.018,204.969 361.018,182.449 361.018,182.319 	"/>
	<polygon fill="none" stroke="#FFFFFF" stroke-width="0.5" stroke-linejoin="round" points="380.038,153.16 380.038,182.32 
		361.018,182.32 359.158,182.32 359.158,176.05 369.348,176.05 369.348,153.11 380.038,153.11 	"/>
	<polygon fill="none" stroke="#FFFFFF" stroke-width="0.5" stroke-linejoin="round" points="359.158,182.319 361.018,182.319 
		361.018,182.449 361.018,204.969 358.248,207.469 358.218,207.5 338.498,187.29 338.588,187.199 343.498,182.319 	"/>
	<polygon fill="none" stroke="#FFFFFF" stroke-width="0.5" stroke-linejoin="round" points="359.158,176.049 359.158,182.319 
		343.498,182.319 338.588,187.199 338.498,187.29 327.608,176.119 327.608,168.049 332.888,162.77 338.038,167.919 359.158,167.919 
			"/>
	<polygon fill="none" stroke="#FFFFFF" stroke-width="0.5" stroke-linejoin="round" points="359.158,153.14 359.158,167.919 
		338.038,167.919 332.888,162.77 342.548,153.11 	"/>
	
		<rect x="25.406" y="206.44" fill="none" stroke="#FFFFFF" stroke-width="0.5" stroke-linejoin="round" width="46.084" height="17.408"/>
	
		<rect x="20.283" y="274.399" fill="none" stroke="#FFFFFF" stroke-width="0.5" stroke-linejoin="round" width="51.207" height="19.346"/>
	<polygon fill="none" stroke="#FFFFFF" stroke-width="0.5" stroke-linejoin="round" points="189.558,259.38 189.558,275.499 
		134.018,333.999 77.328,333.95 77.328,274.401 145.357,274.47 145.357,268.8 172.678,242.38 	"/>
	<polygon fill="none" stroke="#FFFFFF" stroke-width="0.5" stroke-linejoin="round" points="162.388,232.049 172.678,242.38 
		145.358,268.8 145.358,274.47 77.328,274.399 77.328,206.44 91.358,206.44 91.358,195.099 105.667,195.099 105.667,180.929 
		91.358,180.93 91.358,166.75 142.518,166.75 142.518,183.76 148.188,183.759 148.188,192.259 162.368,192.259 162.388,192.259 	"/>
	
		<rect x="148.188" y="183.759" fill="none" stroke="#FFFFFF" stroke-width="0.5" stroke-linejoin="round" width="14.18" height="8.5"/>
	
		<rect x="142.518" y="175.26" fill="none" stroke="#FFFFFF" stroke-width="0.5" stroke-linejoin="round" width="19.857" height="8.5"/>
	<polygon fill="none" stroke="#FFFFFF" stroke-width="0.5" stroke-linejoin="round" points="162.368,169.59 162.368,175.26 
		142.518,175.26 142.518,161.08 145.358,161.08 145.358,155.41 147.092,155.41 	"/>
	<polygon fill="none" stroke="#FFFFFF" stroke-width="0.5" stroke-linejoin="round" points="145.358,155.41 145.358,161.08 
		142.518,161.08 142.518,166.75 91.358,166.75 91.358,155.41 	"/>
	
		<rect x="91.358" y="180.929" fill="none" stroke="#FFFFFF" stroke-width="0.5" stroke-linejoin="round" width="14.31" height="14.17"/>
	<polygon fill="none" stroke="#FFFFFF" stroke-width="0.5" stroke-linejoin="round" points="305.108,168.759 318.028,181.679 
		284.677,181.679 284.698,172.389 284.698,172.339 301.028,172.339 305.028,168.839 	"/>
	<polygon fill="none" stroke="#FFFFFF" stroke-width="0.5" stroke-linejoin="round" points="316.168,230.83 308.497,232.045 
		284.677,232.045 284.677,206.25 311.708,206.241 311.708,211.559 316.168,211.559 	"/>
	<polygon fill="none" stroke="#FFFFFF" stroke-width="0.5" stroke-linejoin="round" points="289.248,152.899 305.108,168.759 
		305.028,168.839 301.028,172.339 284.698,172.339 284.698,152.899 	"/>
	<polygon fill="none" stroke="#FFFFFF" stroke-width="0.5" stroke-linejoin="round" points="260.739,190.544 260.739,206.241 
		252.138,206.214 252.138,232.045 200.301,232.045 194.309,226.225 216.148,206.866 216.148,190.544 	"/>
	<polygon fill="none" stroke="#FFFFFF" stroke-width="0.5" stroke-linejoin="round" points="252.538,152.877 252.538,182.418 
		238.898,182.418 238.898,190.544 231.708,190.533 231.708,152.877 	"/>
	<polygon fill="none" stroke="#FFFFFF" stroke-width="0.5" stroke-linejoin="round" points="231.708,152.899 231.708,190.533 
		216.148,190.544 216.148,152.899 	"/>
	<polygon fill="none" points="216.148,190.544 216.148,206.866 194.308,226.225 189.788,221.955 180.488,213.12 201.968,195.335 
		201.968,190.544 	"/>
	<polygon fill="none" points="201.968,190.544 201.968,175.501 186.078,158.874 192.078,152.899 216.148,152.899 216.148,190.544 	
		"/>
	<polygon fill="none" stroke="#FFFFFF" stroke-width="0.5" stroke-linejoin="round" points="201.968,190.544 201.968,195.335 
		180.488,213.12 178.857,211.549 178.857,190.544 	"/>
	<polygon fill="none" stroke="#FFFFFF" stroke-width="0.5" stroke-linejoin="round" points="201.968,190.544 201.968,175.501 
		186.078,158.874 178.857,166.014 178.857,190.544 	"/>
	<path fill="none" d="M583.827,271.39c2.861,2.721,4.621,6.48,4.621,10.629c0,8.311-7.061,15.041-15.77,15.041h-4.861v-0.119v-28.82
		l6.311-5.961L583.827,271.39z"/>
	<polygon fill="none" points="560.259,248.95 574.128,262.159 567.819,268.12 567.819,296.94 567.819,297.06 530.038,297.06 
		530.038,265.669 544.907,265.669 544.907,249.089 544.907,248.95 	"/>
	<polygon fill="none" stroke="#FFFFFF" stroke-width="0.5" stroke-linejoin="round" points="544.907,249.089 544.907,265.669 
		530.038,265.669 530.038,248.95 544.907,248.95 	"/>
	<polygon fill="none" stroke="#FFFFFF" stroke-width="0.5" stroke-linejoin="round" points="530.038,265.669 530.038,297.06 
		508.487,297.06 508.487,248.95 530.038,248.95 	"/>
	
		<rect x="499.519" y="303.128" fill="none" stroke="#FFFFFF" stroke-width="0.5" stroke-linejoin="round" width="23.299" height="16.881"/>
	<polygon fill="none" stroke="#FFFFFF" stroke-width="0.5" stroke-linejoin="round" points="508.487,281.339 500.278,281.339 
		500.278,278.46 488.615,278.46 488.615,248.95 508.487,248.95 	"/>
	
		<rect x="10.456" y="229.627" fill="#BC90C1" stroke="#FFFFFF" stroke-width="0.5" stroke-linejoin="round" width="61.034" height="39.962"/>
	<path fill="none" stroke="#FFFFFF" stroke-width="0.5" stroke-linejoin="round" d="M427.968,273.509v-0.01v-12.49h-22.61
		c1.467,3.762,2.743,7.922,3.723,12.51h-0.113l0.115,0.014c0.002,0.006,0.004,0.012,0.004,0.018c1.221,5.68,1.99,12,2.16,18.99
		l9.271-0.038v4.558h22.426v-23.551H427.968z"/>
	<path fill="none" stroke="#FFFFFF" stroke-width="0.5" stroke-linejoin="round" d="M427.968,248.769v12.24h-22.61
		c-1.84-4.709-3.98-8.789-6.25-12.25L427.968,248.769z"/>
	<path fill="none" stroke="#FFFFFF" stroke-width="0.5" stroke-linejoin="round" d="M359.927,248.872
		c-2.35,3.449-4.469,7.27-6.409,12.01h-23.154l0.034-12.021L359.927,248.872z"/>
	<path fill="none" stroke="#FFFFFF" stroke-width="0.5" stroke-linejoin="round" d="M330.398,260.882h23.091
		c-1.55,3.779-2.9,8.003-3.94,12.683h-19.151V260.882z"/>
	<path fill="none" stroke="#FFFFFF" stroke-width="0.5" stroke-linejoin="round" d="M330.398,273.564v-4.359h-14.58v14.255h15.407
		v13.721h15.984l0.01-0.139c-0.01-0.74-0.01-1.5,0-2.262c0.03-3.959,0.26-7.699,0.67-11.229c0.39-3.551,0.96-6.868,1.66-9.987
		H330.398z"/>
	<polygon fill="none" stroke="#FFFFFF" stroke-width="0.5" stroke-linejoin="round" points="296.618,248.86 296.618,269.46 
		284.818,269.46 284.818,248.839 	"/>
	
		<rect x="259.178" y="248.86" fill="none" stroke="#FFFFFF" stroke-width="0.5" stroke-linejoin="round" width="16.33" height="21.469"/>
	
		<rect x="250.896" y="297.13" fill="none" stroke="#FFFFFF" stroke-width="0.5" stroke-linejoin="round" width="23.7" height="15.41"/>
	<polygon fill="none" stroke="#FFFFFF" stroke-width="0.5" stroke-linejoin="round" points="245.608,292.002 245.608,248.88 
		245.608,248.86 259.178,248.86 259.178,270.329 259.178,297.13 250.918,297.13 	"/>
	<path fill="none" stroke="#FFFFFF" stroke-width="0.5" stroke-linejoin="round" d="M235.228,248.86c-1.77,0-3.48,0.27-5.06,0.77
		c-5.72,1.799-9.81,6.57-9.81,12.17c0,3.279,1.41,6.279,3.73,8.57l4.46,4.439l17.06,17.192V248.88v-0.02H235.228z"/>
	<path fill="none" stroke="#FFFFFF" stroke-width="0.5" stroke-linejoin="round" d="M348.794,313.007l-0.03-0.033
		c-0.689-3.703-1.221-7.621-1.439-11.889l-0.036-0.023h-16.064v11.945H348.794z"/>
	<path fill="none" stroke="#FFFFFF" stroke-width="0.5" stroke-linejoin="round" d="M355.529,313.021l-0.193,0.006h-1.979
		l-4.563-0.02h-17.569v-8.092h-13.086v29.76H361.5C358.48,329.106,356.107,322.099,355.529,313.021z"/>
	<polygon fill="none" stroke="#FFFFFF" stroke-width="0.5" stroke-linejoin="round" points="622.087,6.729 622.087,133.35 
		591.009,133.35 590.968,133.35 590.968,127.35 77.328,127.35 77.328,6.729 	"/>
	<polygon fill="none" stroke="#FFFFFF" stroke-width="0.5" stroke-linejoin="round" points="613.657,133.35 613.657,139.35 
		572.438,139.35 572.438,136.86 570.048,136.86 570.048,127.35 590.968,127.35 590.968,133.35 591.009,133.35 	"/>
	<polygon fill="none" stroke="#FFFFFF" stroke-width="0.5" stroke-linejoin="round" points="572.438,136.859 572.438,141.83 
		550.147,141.83 550.147,127.349 570.048,127.349 570.048,136.859 	"/>
	<polygon fill="none" stroke="#FFFFFF" stroke-width="0.5" stroke-linejoin="round" points="550.147,127.35 550.147,141.83 
		529.368,141.83 529.368,141.689 529.368,127.35 	"/>
	<polygon fill="none" stroke="#FFFFFF" stroke-width="0.5" stroke-linejoin="round" points="708.108,184.259 708.108,189.189 
		686.888,209.95 686.849,209.91 676.938,200.11 676.938,184.259 	"/>
	<polygon fill="none" stroke="#FFFFFF" stroke-width="0.5" stroke-linejoin="round" points="707.958,172.56 707.958,175.479 
		685.567,175.479 685.567,175.29 685.567,158.56 685.567,158.54 700.718,158.54 	"/>
	<polygon fill="none" stroke="#FFFFFF" stroke-width="0.5" stroke-linejoin="round" points="686.888,209.95 669.567,226.91 
		669.448,226.789 656.778,213.959 651.118,213.959 636.948,213.959 636.948,199.129 636.948,184.26 656.659,184.26 676.938,184.26 
		676.938,200.11 686.849,209.91 	"/>
	<polygon fill="none" stroke="#FFFFFF" stroke-width="0.5" stroke-linejoin="round" points="685.567,175.29 685.567,175.479 
		668.837,175.479 668.837,175.39 668.837,158.56 668.837,158.54 685.567,158.54 685.567,158.56 	"/>
	<polygon fill="none" stroke="#FFFFFF" stroke-width="0.5" stroke-linejoin="round" points="669.567,226.91 651.118,244.96 
		651.118,213.959 656.778,213.959 669.448,226.789 	"/>
	<polygon fill="none" stroke="#FFFFFF" stroke-width="0.5" stroke-linejoin="round" points="668.837,175.39 668.837,175.479 
		656.657,175.479 647.429,175.479 647.429,170.49 647.429,170.4 656.817,170.4 656.817,158.54 668.837,158.54 668.837,158.56 	"/>
	<polygon fill="none" stroke="#FFFFFF" stroke-width="0.5" stroke-linejoin="round" points="636.948,184.259 628.878,184.259 
		628.878,158.689 644.798,158.689 644.798,170.399 647.429,170.399 647.429,170.489 647.429,175.479 656.657,175.479 
		656.657,184.259 	"/>
	<polygon fill="none" stroke="#FFFFFF" stroke-width="0.5" stroke-linejoin="round" points="651.118,213.959 651.118,244.96 
		622.448,244.96 622.448,199.129 636.948,199.129 636.948,213.959 	"/>
	<polygon fill="none" stroke="#FFFFFF" stroke-width="0.5" stroke-linejoin="round" points="636.948,184.259 636.948,199.129 
		622.448,199.129 612.759,199.129 612.759,198.989 612.759,162.539 612.759,158.689 628.878,158.689 628.878,184.259 	"/>
	<polygon fill="none" stroke="#FFFFFF" stroke-width="0.5" stroke-linejoin="round" points="622.448,199.129 622.448,244.96 
		603.778,244.96 603.778,244.79 603.778,199.129 612.759,199.129 	"/>
	<polygon fill="none" stroke="#FFFFFF" stroke-width="0.5" stroke-linejoin="round" points="590.108,214.16 590.108,204.379 
		590.108,199.129 603.778,199.129 603.778,244.79 603.778,244.96 580.407,244.96 579.218,243.829 590.108,233.13 	"/>
	<polygon fill="none" stroke="#FFFFFF" stroke-width="0.5" stroke-linejoin="round" points="590.108,214.16 590.108,233.13 
		579.218,243.829 566.708,232.029 584.929,214.16 	"/>
	<polygon fill="none" stroke="#FFFFFF" stroke-width="0.5" stroke-linejoin="round" points="590.108,204.29 590.108,214.16 
		584.929,214.16 566.708,232.029 554.929,220.9 554.948,220.879 572.028,204.29 	"/>
	<polygon fill="none" stroke="#FFFFFF" stroke-width="0.5" stroke-linejoin="round" points="571.938,191.739 590.067,191.739 
		590.108,191.739 590.108,199.129 590.108,204.29 572.028,204.29 554.948,220.879 554.929,220.9 541.067,207.82 557.499,191.739 	
		"/>
	<polygon fill="none" stroke="#FFFFFF" stroke-width="0.5" stroke-linejoin="round" points="557.497,184.729 557.497,156.24 
		557.497,156.229 571.938,156.229 571.938,162.54 571.938,191.74 557.497,191.74 	"/>
	<polygon fill="none" stroke="#FFFFFF" stroke-width="0.5" stroke-linejoin="round" points="557.497,184.729 557.497,191.74 
		541.067,207.82 526.769,194.319 536.358,184.729 544.048,184.729 	"/>
	<polygon fill="none" stroke="#FFFFFF" stroke-width="0.5" stroke-linejoin="round" points="557.497,156.239 557.497,184.729 
		544.048,184.729 544.048,156.349 544.048,156.229 557.497,156.229 	"/>
	<polygon fill="none" stroke="#FFFFFF" stroke-width="0.5" stroke-linejoin="round" points="544.048,156.35 544.048,184.729 
		536.358,184.729 529.276,177.479 529.276,156.26 529.276,156.229 544.048,156.229 	"/>
	<polygon fill="none" stroke="#FFFFFF" stroke-width="0.5" stroke-linejoin="round" points="529.278,177.479 536.358,184.729 
		526.769,194.319 513.028,181.339 517.118,177.479 	"/>
	<polygon fill="none" stroke="#FFFFFF" stroke-width="0.5" stroke-linejoin="round" points="529.278,156.259 529.278,177.479 
		517.118,177.479 517.118,156.229 529.278,156.229 	"/>
	<path fill="none" stroke="#FFFFFF" stroke-width="0.5" stroke-linejoin="round" d="M531.573,220.283l-0.15-0.049l-14.395-12.615
		l-10.92,10.839h-3.25v14.15h10.949l0.066,0.023h13.34l-0.041,0.041c3.91,0,6.611-3.141,6.611-7.141
		C533.784,223.463,532.935,221.604,531.573,220.283z"/>
	<polyline fill="none" stroke="#FFFFFF" stroke-width="0.5" stroke-linejoin="round" points="656.657,175.479 647.429,175.479 
		647.429,170.49 	"/>
	<polygon fill="none" stroke="#FFFFFF" stroke-width="0.5" stroke-linejoin="round" points="507.829,176.422 513.028,181.339 
		517.118,177.479 517.114,174.49 509.972,174.49 	"/>
	<path fill="none" stroke="#FFFFFF" stroke-width="0.5" stroke-linejoin="round" d="M503.778,156.229l0.039-0.04
		c-3.91,0-6.609,3.14-6.609,7.14c0,2.07,0.85,3.93,2.209,5.25l0.15,0.05l8.262,7.793l2.143-1.932h7.143l0.004,2.989v-21.25H503.778z
		"/>
	<path fill="none" stroke="#FFFFFF" stroke-width="0.5" stroke-linejoin="round" d="M399.383,334.776
		c4.624-7.135,5.681-21.666,5.681-21.666l4.484-0.012v-3.912h11.236l0.023-8.736h8.189v4.459h11.477v29.885L399.383,334.776z"/>
	
		<rect x="590.108" y="191.736" fill="#88BCE7" stroke="#FFFFFF" stroke-width="0.5" stroke-linejoin="round" width="15.65" height="7.393"/>
	<path fill="none" stroke="#FFFFFF" stroke-width="0.5" stroke-linejoin="round" d="M385.947,298.46c0,0,2.88,7.521,3.667,11.332
		c1.185,5.74,1.106,10.182-1.924,17.193c-1.636,3.786-5.409,7.141-5.409,7.141h8.333c6.667,0,9-17,9.667-24.666h5l1.795-11H385.947z
		"/>
	<polygon fill="none" stroke="#FFFFFF" stroke-width="0.5" stroke-linejoin="round" points="403.947,277.126 381.947,277.126 
		384.947,261.126 400.947,261.126 	"/>
	<circle fill="none" stroke="#FFFFFF" stroke-width="0.5" stroke-linejoin="round" cx="387.947" cy="232.793" r="6.333"/>
	
		<rect x="311.611" y="153.793" transform="matrix(0.7071 -0.7071 0.7071 0.7071 -19.9645 271.3874)" fill="none" stroke="#FFFFFF" stroke-width="0.5" stroke-linejoin="round" width="12" height="12"/>
	
		<rect x="442.944" y="248.77" fill="none" stroke="#FFFFFF" stroke-width="0.5" stroke-linejoin="round" width="41.453" height="53.691"/>
	
		<rect x="492.829" y="281.339" fill="none" stroke="#FFFFFF" stroke-width="0.5" stroke-linejoin="round" width="15.658" height="15.721"/>
	
		<rect x="427.968" y="248.771" fill="none" stroke="#FFFFFF" stroke-width="0.5" stroke-linejoin="round" width="14.977" height="24.729"/>
	<polygon fill="none" stroke="#FFFFFF" stroke-width="0.5" stroke-linejoin="round" points="276.031,172.344 276.031,152.877 
		260.739,152.877 253.484,152.877 252.538,152.877 252.538,182.418 238.898,182.418 238.898,190.544 284.677,190.544 
		284.677,172.344 	"/>
	<polygon fill="none" points="295.286,190.533 260.739,190.533 260.739,206.203 252.138,206.203 252.138,232.034 284.677,232.034 
		284.677,206.23 295.292,206.23 	"/>
	<polygon fill="none" stroke="#FFFFFF" stroke-width="0.5" stroke-linejoin="round" points="331.578,228.42 316.168,230.83 
		316.168,211.559 311.708,211.559 311.708,206.241 331.578,206.241 	"/>
	<polygon fill="none" stroke="#FFFFFF" stroke-width="0.5" stroke-linejoin="round" points="329.086,192.734 318.028,181.679 
		284.677,181.679 284.677,190.543 295.286,190.533 295.292,206.241 322.981,206.241 322.981,198.672 	"/>
	<polygon fill="none" stroke="#FFFFFF" stroke-width="0.5" stroke-linejoin="round" points="329.086,192.734 322.981,198.672 
		322.981,206.241 331.578,206.241 331.578,228.418 350.008,225.537 350.008,213.649 	"/>
	
		<rect x="315.818" y="248.86" fill="none" stroke="#FFFFFF" stroke-width="0.5" stroke-linejoin="round" width="14.58" height="20.359"/>
	
		<rect x="296.618" y="248.86" fill="none" stroke="#FFFFFF" stroke-width="0.5" stroke-linejoin="round" width="19.2" height="34.6"/>
	
		<rect x="259.178" y="280.752" fill="none" stroke="#FFFFFF" stroke-width="0.5" stroke-linejoin="round" width="15.419" height="16.378"/>
	<polygon fill="#E6007E" stroke="#FFFFFF" stroke-width="0.5" stroke-linejoin="round" points="529.368,127.35 529.368,141.83 
		508.589,141.83 508.589,141.689 508.589,127.35 	"/>
	<text transform="matrix(-0.0144 -1.0327 0.9999 -0.0135 582.0889 293.373)" font-family="'ArialMT'" font-size="3.9925">22 - 125m²</text>
</g>
<g id="text">
	<text transform="matrix(0.9 0 0 1 85.457 21.0723)"><tspan x="0" y="0" font-family="'Arial-Black'" font-size="8">Carrefour/Hypermarket</tspan><tspan x="0" y="8.5" font-family="'ArialMT'" font-size="8">15,000m² sales area</tspan></text>
	<text transform="matrix(0.9 0 0 1 640.2197 23.7393)"><tspan x="0" y="0" fill="#FFFFFF" font-family="'Arial-Black'" font-size="8">Media World</tspan><tspan x="0" y="8.5" fill="#FFFFFF" font-family="'ArialMT'" font-size="8">1N - 3872m²</tspan></text>
	<text transform="matrix(0.9 0 0 1 736.2197 77.4893)"><tspan x="0" y="0" font-family="'Arial-Black'" font-size="8">H&amp;M</tspan><tspan x="0" y="8.5" font-family="'ArialMT'" font-size="8">2N - 1.570m²</tspan></text>
	<text transform="matrix(0 -0.9 1 0 634.9697 140.4883)"><tspan x="0" y="0" font-family="'Arial-Black'" font-size="5.5">Footlocker</tspan><tspan x="0" y="6.5" font-family="'Arial-Black'" font-size="5.5">Kids</tspan><tspan x="0" y="13" font-family="'ArialMT'" font-size="5.5">4N - 250m²</tspan></text>
	<text transform="matrix(0 -0.9 1 0 721.7197 140.4883)"><tspan x="0" y="0" font-family="'Arial-Black'" font-size="5.5">Freddy</tspan><tspan x="0" y="6.5" font-family="'ArialMT'" font-size="5.5">3N - 139m²</tspan></text>
	<text transform="matrix(0.9 0 0 1 725.9697 204.9883)"><tspan x="0" y="0" font-family="'Arial-Black'" font-size="4.5">Nike</tspan><tspan x="0" y="4.5" font-family="'ArialMT'" font-size="4.5">18N</tspan><tspan x="0" y="9" font-family="'ArialMT'" font-size="4.5">320m²</tspan></text>
	<g>
		<path d="M638.901,92.554c0,0.834-0.676,1.51-1.51,1.51h-8.303c-0.834,0-1.512-0.676-1.512-1.51v-8.303
			c0-0.834,0.678-1.51,1.512-1.51h8.303c0.834,0,1.51,0.676,1.51,1.51V92.554z"/>
		<g>
			<path fill="#FFFFFF" d="M631.944,85.781h-2.631c-0.195,0-0.354,0.16-0.354,0.355v2.633c0,0.195,0.159,0.354,0.354,0.354
				s0.354-0.158,0.354-0.354v-2.055h0.164v5.777c0,0.195,0.159,0.354,0.354,0.354s0.354-0.158,0.354-0.354v-3.367h0.176v3.367
				c0,0.195,0.159,0.354,0.354,0.354s0.354-0.158,0.354-0.354v-5.777h0.164v2.055c0,0.195,0.159,0.354,0.354,0.354
				s0.354-0.158,0.354-0.354v-2.633C632.299,85.941,632.14,85.781,631.944,85.781z"/>
			<circle fill="#FFFFFF" cx="630.63" cy="84.742" r="0.844"/>
		</g>
		<g>
			<circle fill="#FFFFFF" cx="635.765" cy="84.742" r="0.844"/>
			<path fill="#FFFFFF" d="M637.741,88.605l-0.637-2.555c-0.002-0.01-0.009-0.016-0.012-0.025c-0.008-0.021-0.018-0.043-0.029-0.063
				c-0.012-0.021-0.023-0.041-0.039-0.059c-0.015-0.016-0.03-0.027-0.047-0.041c-0.018-0.014-0.035-0.027-0.056-0.037
				c-0.021-0.012-0.045-0.02-0.068-0.025c-0.021-0.006-0.039-0.01-0.06-0.012c-0.012-0.002-0.021-0.008-0.033-0.008h-1.99
				c-0.012,0-0.021,0.006-0.033,0.008c-0.021,0.002-0.039,0.006-0.058,0.012c-0.025,0.006-0.049,0.014-0.071,0.025
				c-0.019,0.01-0.035,0.021-0.052,0.035c-0.019,0.014-0.035,0.027-0.051,0.045c-0.015,0.018-0.025,0.035-0.037,0.055
				c-0.012,0.021-0.022,0.041-0.03,0.064c-0.003,0.01-0.01,0.016-0.012,0.025l-0.637,2.555c-0.048,0.189,0.068,0.383,0.258,0.43
				c0.029,0.006,0.058,0.01,0.086,0.01c0.159,0,0.304-0.107,0.344-0.268l0.491-1.971V87.4l-0.743,2.984h0.743v2.107
				c0,0.195,0.159,0.354,0.354,0.354s0.354-0.158,0.354-0.354v-2.107h0.176v2.107c0,0.195,0.159,0.354,0.354,0.354
				s0.354-0.158,0.354-0.354v-2.107h0.743l-0.742-2.979l-0.001-0.004v-0.596l0.491,1.971c0.04,0.16,0.185,0.268,0.344,0.268
				c0.028,0,0.057-0.004,0.086-0.01C637.673,88.988,637.789,88.794,637.741,88.605z"/>
		</g>
	</g>
	<text transform="matrix(0.9 0 0 1 744.4697 187.7393)"><tspan x="0" y="0" fill="#FFFFFF" font-family="'Arial-Black'" font-size="5.5">Apple</tspan><tspan x="0" y="6.5" fill="#FFFFFF" font-family="'ArialMT'" font-size="5.5">16N+17N - 615m²</tspan></text>
	<text transform="matrix(0.9 0 0 1 672.7197 260.7393)"><tspan x="0" y="0" font-family="'Arial-Black'" font-size="8">Zara</tspan><tspan x="0" y="8.5" font-family="'ArialMT'" font-size="8">24 - 1608m²</tspan></text>
	<text transform="matrix(0.9 0 0 1 693.2197 237.4893)"><tspan x="0" y="0" font-family="'Arial-Black'" font-size="4.5">Calvin </tspan><tspan x="0" y="4.5" font-family="'Arial-Black'" font-size="4.5">Klein</tspan><tspan x="0" y="9" font-family="'ArialMT'" font-size="4.5">22N - 203m²</tspan></text>
	<text transform="matrix(0.9 0 0 1 686.7197 163.1143)"><tspan x="0" y="0" font-family="'Arial-Black'" font-size="3.5">Carpisa</tspan><tspan x="0" y="3.5" font-family="'ArialMT'" font-size="3.5">10N - 88m²</tspan></text>
	<text transform="matrix(0.9 0 0 1 658.5947 163.1143)"><tspan x="0" y="0" font-family="'Arial-Black'" font-size="3.5">NAU</tspan><tspan x="0" y="3.5" font-family="'ArialMT'" font-size="3.5">8N</tspan><tspan x="0" y="7" font-family="'ArialMT'" font-size="3.5">52m²</tspan></text>
	<text transform="matrix(0 -0.9 1 0 634.0947 182.0625)"><tspan x="0" y="0" font-family="'Arial-Black'" font-size="4">The Beach</tspan><tspan x="0" y="4" font-family="'ArialMT'" font-size="4">7N - 118m²</tspan></text>
	<text transform="matrix(0 -0.9 1 0 618.0947 197.2383)"><tspan x="0" y="0" font-family="'Arial-Black'" font-size="4.5">Original Marines</tspan><tspan x="0" y="4.5" font-family="'ArialMT'" font-size="4.5">6N - 174m²</tspan></text>
	<text transform="matrix(0 -0.9 1 0 563.4697 189.8633)"><tspan x="0" y="0" font-family="'Arial-Black'" font-size="4.5">Mathis</tspan><tspan x="0" y="4.5" font-family="'ArialMT'" font-size="4.5">12E - 114m²</tspan></text>
	<text transform="matrix(0 -0.9 1 0 549.5947 182.2383)"><tspan x="0" y="0" font-family="'Arial-Black'" font-size="4.5">Kickers</tspan><tspan x="0" y="4.5" font-family="'ArialMT'" font-size="4.5">11E - 88m²</tspan></text>
	<text transform="matrix(0 -0.9 1 0 534.5947 178.4883)"><tspan x="0" y="0" font-family="'Arial-Black'" font-size="4">Mandarina </tspan><tspan x="0" y="4" font-family="'Arial-Black'" font-size="4">Duck</tspan><tspan x="0" y="8" font-family="'ArialMT'" font-size="4">10E - 80m²</tspan></text>
	<text transform="matrix(0 -0.9 1 0 521.0947 176.3633)"><tspan x="0" y="0" font-family="'Arial-Black'" font-size="3">L’Occitane </tspan><tspan x="0" y="3" font-family="'Arial-Black'" font-size="3">en Provence</tspan><tspan x="0" y="6" font-family="'ArialMT'" font-size="3">9E - 62m²</tspan></text>
	<text transform="matrix(0.9 0 0 1 499.5107 162.2383)"><tspan x="0" y="0" font-family="'Arial-Black'" font-size="3.25">Blue Spirit</tspan><tspan x="0" y="3.5" font-family="'ArialMT'" font-size="3.25">8E - 75m²</tspan></text>
	<text transform="matrix(0.9 0 0 1 670.6357 163.1143)"><tspan x="0" y="0" font-family="'Arial-Black'" font-size="3.5">Bijou </tspan><tspan x="0" y="3.5" font-family="'Arial-Black'" font-size="3.5">Brigitte</tspan><tspan x="0" y="7" font-family="'ArialMT'" font-size="3.5">9N - 57m²</tspan></text>
	<text transform="matrix(0.9 0 0 1 656.7197 302.4893)"><tspan x="0" y="0" font-family="'Arial-Black'" font-size="4.5">Celio</tspan><tspan x="0" y="4.5" font-family="'ArialMT'" font-size="4.5">23N - 245m²</tspan></text>
	<text transform="matrix(0.9 0 0 1 710.2197 218.4893)"><tspan x="0" y="0" font-family="'Arial-Black'" font-size="4.5">Tally </tspan><tspan x="0" y="4.5" font-family="'Arial-Black'" font-size="4.5">Weijl</tspan><tspan x="0" y="9" font-family="'ArialMT'" font-size="4.5">19N</tspan><tspan x="0" y="13.5" font-family="'ArialMT'" font-size="4.5">120m²</tspan></text>
	<text transform="matrix(0.9 0 0 1 626.9697 302.4893)"><tspan x="0" y="0" font-family="'Arial-Black'" font-size="4.5">Farmacia</tspan><tspan x="0" y="4.5" font-family="'ArialMT'" font-size="4.5">24N - 181m²</tspan></text>
	<text transform="matrix(0.9 0 0 1 520.4697 181.1133)"><tspan x="0" y="0" font-family="'Arial-Black'" font-size="3">Calze-</tspan><tspan x="0" y="3" font-family="'Arial-Black'" font-size="3">donia</tspan><tspan x="0" y="6" font-family="'ArialMT'" font-size="3">7E - 59m²</tspan></text>
	<text transform="matrix(0.9 0 0 1 535.4697 189.3633)"><tspan x="0" y="0" font-family="'Arial-Black'" font-size="4">Conte of </tspan><tspan x="0" y="4" font-family="'Arial-Black'" font-size="4">Florence</tspan><tspan x="0" y="8" font-family="'ArialMT'" font-size="4">6E - 91m²</tspan></text>
	<text transform="matrix(0.9 0 0 1 572.0947 231.2383)"><tspan x="0" y="0" font-family="'Arial-Black'" font-size="4">Kiko</tspan><tspan x="0" y="4" font-family="'ArialMT'" font-size="4">3E - 78m²</tspan></text>
	<text transform="matrix(0.9 0 0 1 559.9697 197.4883)"><tspan x="0" y="0" font-family="'Arial-Black'" font-size="4.5">Kasanova</tspan><tspan x="0" y="4.5" font-family="'ArialMT'" font-size="4.5">5E - 157m²</tspan></text>
	<text transform="matrix(0.9 0 0 1 570.9697 208.2383)"><tspan x="0" y="0" font-family="'Arial-Black'" font-size="3">La Boutique </tspan><tspan x="0" y="3" font-family="'Arial-Black'" font-size="3">del Regalo</tspan><tspan x="0" y="6" font-family="'ArialMT'" font-size="3">4E - 109m²</tspan></text>
	<text transform="matrix(0 -0.9 1 0 596.0947 242.4883)"><tspan x="0" y="0" font-family="'Arial-Black'" font-size="4.5">Il Pellicano</tspan><tspan x="0" y="4.5" font-family="'ArialMT'" font-size="4.5">2E - 209,5m²</tspan></text>
	<text transform="matrix(0 -0.9 1 0 609.5947 242.4883)"><tspan x="0" y="0" font-family="'Arial-Black'" font-size="4.5">Tommy Hilfiger </tspan><tspan x="0" y="4.5" font-family="'Arial-Black'" font-size="4.5">Denim</tspan><tspan x="0" y="9" font-family="'ArialMT'" font-size="4.5">1E - 176m²</tspan></text>
	<text transform="matrix(0 -0.9 1 0 628.0947 242.4883)"><tspan x="0" y="0" font-family="'Arial-Black'" font-size="4.5">Guess</tspan><tspan x="0" y="4.5" font-family="'ArialMT'" font-size="4.5">11N+12N - 243m²</tspan></text>
	<text transform="matrix(0 -0.9 1 0 654.9697 236.6133)"><tspan x="0" y="0" font-family="'Arial-Black'" font-size="3.5">Golden Lady</tspan><tspan x="0" y="3.5" font-family="'ArialMT'" font-size="3.5">13N - 106m²</tspan></text>
	<text transform="matrix(0.9 0 0 1 638.9697 190.2393)"><tspan x="0" y="0" font-family="'Arial-Black'" font-size="5.5">Sephora</tspan><tspan x="0" y="6.5" font-family="'ArialMT'" font-size="5.5">14N - 312m²</tspan></text>
	<text transform="matrix(0.9 0 0 1 678.3447 188.9355)"><tspan x="0" y="0" font-family="'Arial-Black'" font-size="4">Luca d’Altieri</tspan><tspan x="0" y="4" font-family="'ArialMT'" font-size="4">15N - 119m²</tspan></text>
	<text transform="matrix(0.9 0 0 1 469.5098 154.7383)"><tspan x="0" y="0" font-family="'Arial-Black'" font-size="4">Justime</tspan><tspan x="0" y="4" font-family="'ArialMT'" font-size="4">32E - 30m²</tspan></text>
	<text transform="matrix(0.9 0 0 1 446.6768 180.2383)"><tspan x="0" y="0" font-family="'Arial-Black'" font-size="4">C’è bassetti</tspan><tspan x="0" y="4" font-family="'ArialMT'" font-size="4">32 - 86m²</tspan></text>
	<text transform="matrix(0 -0.9 1 0 477.5107 202.0703)"><tspan x="0" y="0" font-family="'Arial-Black'" font-size="4.5">Tendenze</tspan><tspan x="0" y="4.5" font-family="'ArialMT'" font-size="4.5">31 - 125m²</tspan></text>
	<text transform="matrix(0.9 0 0 1 431.1768 196.0708)"><tspan x="0" y="0" font-family="'Arial-Black'" font-size="4.5">Timberland</tspan><tspan x="0" y="4.5" font-family="'ArialMT'" font-size="4.5">60 - 144m²</tspan></text>
	<text transform="matrix(0.9 0 0 1 382.5098 188.2378)"><tspan x="0" y="0" font-family="'Arial-Black'" font-size="4.5">Tank</tspan><tspan x="0" y="4.5" font-family="'ArialMT'" font-size="4.5">58+59 - 180m²</tspan></text>
	<text transform="matrix(0.9 0 0 1 344.0098 187.0713)"><tspan x="0" y="0" fill="#FFFFFF" font-family="'Arial-Black'" font-size="3.5">Vodafone</tspan><tspan x="0" y="3.5" fill="#FFFFFF" font-family="'ArialMT'" font-size="3.5">56 - 63m²</tspan></text>
	<text transform="matrix(0 -0.9 1 0 369.6768 211.4043)"><tspan x="0" y="0" font-family="'Arial-Black'" font-size="5">Superdry</tspan><tspan x="0" y="4.5" font-family="'ArialMT'" font-size="5">57 - 130m²</tspan></text>
	<text transform="matrix(0.9 0 0 1 444.8428 254.2617)"><tspan x="0" y="0" font-family="'Arial-Black'" font-size="5.5">Hollister</tspan><tspan x="0" y="6.5" font-family="'ArialMT'" font-size="5.5">18 - 636m²</tspan></text>
	<text transform="matrix(0.9 0 0 1 532.1768 272.9297)"><tspan x="0" y="0" font-family="'Arial-Black'" font-size="5.5">Librerie </tspan><tspan x="0" y="6.5" font-family="'Arial-Black'" font-size="5.5">Coop</tspan><tspan x="0" y="13" font-family="'ArialMT'" font-size="5.5">22b - 353m²</tspan></text>
	<text transform="matrix(0.9 0 0 1 490.0088 253.4297)"><tspan x="0" y="0" font-family="'Arial-Black'" font-size="4">Pimkie</tspan><tspan x="0" y="4" font-family="'ArialMT'" font-size="4">19 - 167m²</tspan></text>
	<text transform="matrix(0.9 0 0 1 501.5088 308.5957)"><tspan x="0" y="0" font-family="'Arial-Black'" font-size="4">E’arrivato </tspan><tspan x="0" y="4" font-family="'Arial-Black'" font-size="4">Paolino</tspan><tspan x="0" y="8" font-family="'ArialMT'" font-size="4">32N - 105m²</tspan></text>
	<text transform="matrix(0.9 0 0 1 531.0928 253.4297)"><tspan x="0" y="0" font-family="'Arial-Black'" font-size="3.25">Bottega </tspan><tspan x="0" y="3.5" font-family="'Arial-Black'" font-size="3.25">Verde</tspan><tspan x="0" y="7" font-family="'ArialMT'" font-size="3.25">21 - 54m²</tspan></text>
	<text transform="matrix(0 -0.9 1 0 514.6768 295.0957)"><tspan x="0" y="0" font-family="'Arial-Black'" font-size="4">Salmoiraghi &amp; Vigano</tspan><tspan x="0" y="4" font-family="'ArialMT'" font-size="4">20 - 226m²</tspan></text>
	<text transform="matrix(0.9 0 0 1 413.1768 278.5957)"><tspan x="0" y="0" font-family="'Arial-Black'" font-size="3.5">Old Wild West + </tspan><tspan x="0" y="3.5" font-family="'Arial-Black'" font-size="3.5">Arabian Kebab</tspan><tspan x="0" y="7" font-family="'ArialMT'" font-size="3.5">24E+25E+26E</tspan><tspan x="0" y="10.5" font-family="'ArialMT'" font-size="3.5">317m²</tspan></text>
	<text transform="matrix(0.9 0 0 1 406.6768 318.0957)"><tspan x="0" y="0" font-family="'Arial-Black'" font-size="4">Rossopomodoro</tspan><tspan x="0" y="4" font-family="'ArialMT'" font-size="4">26N - 373m²</tspan></text>
	<text transform="matrix(0.9 0 0 1 410.3438 219.5713)"><tspan x="0" y="0" font-family="'Arial-Black'" font-size="4.5">Stroili Oro</tspan><tspan x="0" y="4.5" font-family="'ArialMT'" font-size="4.5">62 - 118m²</tspan></text>
	<text transform="matrix(0 -0.9 1 0 472.5098 229.9043)"><tspan x="0" y="0" font-family="'Arial-Black'" font-size="4.5">Oltre</tspan><tspan x="0" y="4.5" font-family="'ArialMT'" font-size="4.5">65 - 114m²</tspan></text>
	<text transform="matrix(0 -0.9 1 0 458.1777 229.9043)"><tspan x="0" y="0" fill="#FFFFFF" font-family="'Arial-Black'" font-size="3.5">MIT</tspan><tspan x="0" y="3.5" fill="#FFFFFF" font-family="'ArialMT'" font-size="3.5">64 - 79m²</tspan></text>
	<text transform="matrix(0 -0.9822 1 0 447.2451 229.8457)"><tspan x="0" y="0" fill="#FFFFFF" font-family="'Arial-Black'" font-size="3.2069">GAMESTOP</tspan><tspan x="0" y="3.207" fill="#FFFFFF" font-family="'ArialMT'" font-size="3.2069">63 - 69m²</tspan></text>
	<text transform="matrix(0 -0.9 1 0 491.3428 229.9043)"><tspan x="0" y="0" font-family="'Arial-Black'" font-size="3.5">Paul and </tspan><tspan x="0" y="3.5" font-family="'Arial-Black'" font-size="3.5">Shark</tspan><tspan x="0" y="7" font-family="'ArialMT'" font-size="3.5">66 - 84m²</tspan></text>
	<text transform="matrix(0.9 0 0 1 551.3447 132.4048)"><tspan x="0" y="0" font-family="'Arial-Black'" font-size="4">Thun</tspan><tspan x="0" y="4" font-family="'ArialMT'" font-size="4">18E - 80m²</tspan></text>
	<text transform="matrix(0.9 0 0 1 571.0107 131.332)"><tspan x="0" y="0" font-family="'Arial-Black'" font-size="2.75">La Caffetteria</tspan><tspan x="0" y="3" font-family="'ArialMT'" font-size="2.75">19E+20E - 81m²</tspan></text>
	<text transform="matrix(0.9 0 0 1 531.0117 132.4048)"><tspan x="0" y="0" font-family="'Arial-Black'" font-size="4">Blu-</tspan><tspan x="0" y="4" font-family="'Arial-Black'" font-size="4">vacanze</tspan><tspan x="0" y="8" font-family="'ArialMT'" font-size="4">17E - 66m²</tspan></text>
	<text transform="matrix(0.9 0 0 1 487.0527 194.5303)"><tspan x="0" y="0" font-family="'Arial-Black'" font-size="3">La bottega</tspan><tspan x="0" y="3" font-family="'Arial-Black'" font-size="3">dell’arte</tspan><tspan x="0" y="6" font-family="'ArialMT'" font-size="3">70 - 56m²</tspan></text>
	<text transform="matrix(0.9 0 0 1 499.2197 206.6968)"><tspan x="0" y="0" font-family="'Arial-Black'" font-size="3">Invidia </tspan><tspan x="0" y="3" font-family="'Arial-Black'" font-size="3">uomo</tspan><tspan x="0" y="6" font-family="'ArialMT'" font-size="3">69 - 53m²</tspan></text>
	<text transform="matrix(0.9 0 0 1 418.8857 207.1963)"><tspan x="0" y="0" font-family="'Arial-Black'" font-size="3.5">Swatch</tspan><tspan x="0" y="3.5" font-family="'ArialMT'" font-size="3.5">61 - 44m²</tspan></text>
	<text transform="matrix(0.9 0 0 1 411.8857 174.9463)"><tspan x="0" y="0" font-family="'Arial-Black'" font-size="3">Tucano </tspan><tspan x="0" y="3" font-family="'Arial-Black'" font-size="3">Urbano</tspan><tspan x="0" y="6" font-family="'ArialMT'" font-size="3">33 - 72m²</tspan></text>
	<text transform="matrix(0.9 0 0 1 505.0107 224.9434)"><tspan x="0" y="0" font-family="'Arial-Black'" font-size="4.5">Marella</tspan><tspan x="0" y="4.5" font-family="'ArialMT'" font-size="4.5">67+68 - 144m²</tspan></text>
	<text transform="matrix(0.9 0 0 1 395.5098 230.4043)"><tspan x="0" y="0" font-family="'Arial-Black'" font-size="3.5">La bottega </tspan><tspan x="0" y="3.5" font-family="'Arial-Black'" font-size="3.5">del caffè</tspan><tspan x="0" y="7" font-family="'ArialMT'" font-size="3.5">25N - 34m²</tspan></text>
	<text transform="matrix(0.9 0 0 1 406.1758 252.5713)"><tspan x="0" y="0" font-family="'Arial-Black'" font-size="3.5">Qualcosa </tspan><tspan x="0" y="3.5" font-family="'Arial-Black'" font-size="3.5">di buono</tspan><tspan x="0" y="7" font-family="'ArialMT'" font-size="3.5">16 - 75m²</tspan></text>
	<text transform="matrix(0.9 0 0 1 332.0088 252.9043)"><tspan x="0" y="0" font-family="'Arial-Black'" font-size="3.5">De Santis</tspan><tspan x="0" y="3.5" font-family="'ArialMT'" font-size="3.5">12 - 75m²</tspan></text>
	<text transform="matrix(0.9 0 0 1 260.6758 253.5703)"><tspan x="0" y="0" font-family="'Arial-Black'" font-size="4">Jolly </tspan><tspan x="0" y="4" font-family="'Arial-Black'" font-size="4">Foto</tspan><tspan x="0" y="8" font-family="'ArialMT'" font-size="4">8 - 75m²</tspan></text>
	<text transform="matrix(0 -0.9 1 0 239.3428 278.7373)"><tspan x="0" y="0" font-family="'Arial-Black'" font-size="4.5">Chic Accent</tspan><tspan x="0" y="4.5" font-family="'ArialMT'" font-size="4.5">6+6A - 158m²</tspan></text>
	<text transform="matrix(0 -0.9 1 0 250.8428 292.0723)"><tspan x="0" y="0" font-family="'Arial-Black'" font-size="4.5">1H Clean</tspan><tspan x="0" y="6.5" font-family="'ArialMT'" font-size="5.5">7 - 135m²</tspan></text>
	<text transform="matrix(0 -0.9 1 0 302.1748 281.2383)"><tspan x="0" y="0" font-family="'Arial-Black'" font-size="4.5">Motivi</tspan><tspan x="0" y="6.5" font-family="'ArialMT'" font-size="5.5">10 - 149m²</tspan></text>
	<text transform="matrix(0 -0.9 1 0 320.3428 267.7373)"><tspan x="0" y="0" font-family="'Arial-Black'" font-size="4">Pull Love</tspan><tspan x="0" y="4" font-family="'ArialMT'" font-size="4">11 - 79m²</tspan></text>
	<text transform="matrix(0 -0.9 1 0 288.8428 267.7373)"><tspan x="0" y="0" font-family="'Arial-Black'" font-size="3">Hobby casa </tspan><tspan x="0" y="3" font-family="'Arial-Black'" font-size="3">cucito</tspan><tspan x="0" y="6" font-family="'ArialMT'" font-size="3">9 - 54m²</tspan></text>
	<text transform="matrix(0.9 0 0 1 332.0083 265.2383)"><tspan x="0" y="0" font-family="'Arial-Black'" font-size="3.5">Qui Pizza</tspan><tspan x="0" y="3.5" font-family="'ArialMT'" font-size="3.5">21E - 63m²</tspan></text>
	<text transform="matrix(0.9 0 0 1 332.3418 304.4043)"><tspan x="0" y="0" font-family="'Arial-Black'" font-size="2.5">Lombardini </tspan><tspan x="0" y="2.5" font-family="'Arial-Black'" font-size="2.5">piadina </tspan><tspan x="0" y="5" font-family="'Arial-Black'" font-size="2.5">e pesce</tspan><tspan x="0" y="7.5" font-family="'ArialMT'" font-size="2.5">28N - 52m²</tspan></text>
	<text transform="matrix(0.9 0 0 1 317.5078 277.2383)"><tspan x="0" y="0" font-family="'Arial-Black'" font-size="3.5">Kikko</tspan><tspan x="0" y="3.5" font-family="'ArialMT'" font-size="3.5">22E+23E - 143m²</tspan></text>
	<text transform="matrix(0.9 0 0 1 320.6748 318.9043)"><tspan x="0" y="0" font-family="'Arial-Black'" font-size="5.5">Mc Donald’s</tspan><tspan x="0" y="6.5" font-family="'ArialMT'" font-size="5.5">27N - 240m²</tspan></text>
	<text transform="matrix(0.9 0 0 1 386.1753 265.0703)"><tspan x="0" y="0" font-family="'Arial-Black'" font-size="3.5">Area </tspan><tspan x="0" y="3.5" font-family="'Arial-Black'" font-size="3.5">tavoli</tspan><tspan x="0" y="7" font-family="'ArialMT'" font-size="3.5">24E+25E</tspan><tspan x="0" y="10.5" font-family="'ArialMT'" font-size="3.5">+26E</tspan></text>
	<text transform="matrix(0.9 0 0 1 391.0088 302.4043)"><tspan x="0" y="0" font-family="'Arial-Black'" font-size="3.5">Area </tspan><tspan x="0" y="3.5" font-family="'Arial-Black'" font-size="3.5">tavoli</tspan><tspan x="0" y="7" font-family="'ArialMT'" font-size="3.5">24N</tspan></text>
	<text transform="matrix(-0.0075 -0.4857 0.9999 -0.0154 433.6787 270.1035)"><tspan x="0" y="0" font-family="'Arial-Black'" font-size="5.3739">L’Erboristeria</tspan><tspan x="0.001" y="5.375" font-family="'ArialMT'" font-size="5.3739">17 - 65m²</tspan></text>
	<g>
		<path d="M506.567,293.388c0,0.834-0.676,1.51-1.51,1.51h-8.303c-0.834,0-1.512-0.676-1.512-1.51v-8.303
			c0-0.834,0.678-1.51,1.512-1.51h8.303c0.834,0,1.51,0.676,1.51,1.51V293.388z"/>
		<g>
			<path fill="#FFFFFF" d="M499.61,286.614h-2.631c-0.195,0-0.354,0.16-0.354,0.355v2.633c0,0.195,0.159,0.354,0.354,0.354
				s0.354-0.158,0.354-0.354v-2.055h0.164v5.777c0,0.195,0.159,0.354,0.354,0.354s0.354-0.158,0.354-0.354v-3.367h0.176v3.367
				c0,0.195,0.159,0.354,0.354,0.354s0.354-0.158,0.354-0.354v-5.777h0.164v2.055c0,0.195,0.159,0.354,0.354,0.354
				s0.354-0.158,0.354-0.354v-2.633C499.965,286.774,499.806,286.614,499.61,286.614z"/>
			<circle fill="#FFFFFF" cx="498.296" cy="285.575" r="0.844"/>
		</g>
		<g>
			<circle fill="#FFFFFF" cx="503.431" cy="285.575" r="0.844"/>
			<path fill="#FFFFFF" d="M505.407,289.438l-0.637-2.555c-0.002-0.01-0.009-0.016-0.012-0.025
				c-0.008-0.021-0.018-0.043-0.029-0.063c-0.012-0.021-0.023-0.041-0.039-0.059c-0.015-0.016-0.03-0.027-0.047-0.041
				c-0.018-0.014-0.035-0.027-0.056-0.037c-0.021-0.012-0.045-0.02-0.068-0.025c-0.021-0.006-0.039-0.01-0.06-0.012
				c-0.012-0.002-0.021-0.008-0.033-0.008h-1.99c-0.012,0-0.021,0.006-0.033,0.008c-0.021,0.002-0.039,0.006-0.058,0.012
				c-0.025,0.006-0.049,0.014-0.071,0.025c-0.019,0.01-0.035,0.021-0.052,0.035c-0.019,0.014-0.035,0.027-0.051,0.045
				c-0.015,0.018-0.025,0.035-0.037,0.055c-0.012,0.021-0.022,0.041-0.03,0.064c-0.003,0.01-0.01,0.016-0.012,0.025l-0.637,2.555
				c-0.048,0.189,0.068,0.383,0.258,0.43c0.029,0.006,0.058,0.01,0.086,0.01c0.159,0,0.304-0.107,0.344-0.268l0.491-1.971v0.594
				l-0.743,2.984h0.743v2.107c0,0.195,0.159,0.354,0.354,0.354s0.354-0.158,0.354-0.354v-2.107h0.176v2.107
				c0,0.195,0.159,0.354,0.354,0.354s0.354-0.158,0.354-0.354v-2.107h0.743l-0.742-2.979l-0.001-0.004v-0.596l0.491,1.971
				c0.04,0.16,0.185,0.268,0.344,0.268c0.028,0,0.057-0.004,0.086-0.01C505.339,289.821,505.455,289.628,505.407,289.438z"/>
		</g>
	</g>
	<g>
		<path d="M272.734,293.055c0,0.834-0.676,1.51-1.51,1.51h-8.303c-0.834,0-1.512-0.676-1.512-1.51v-8.303
			c0-0.834,0.678-1.51,1.512-1.51h8.303c0.834,0,1.51,0.676,1.51,1.51V293.055z"/>
		<g>
			<path fill="#FFFFFF" d="M265.777,286.281h-2.631c-0.195,0-0.354,0.16-0.354,0.355v2.633c0,0.195,0.159,0.354,0.354,0.354
				s0.354-0.158,0.354-0.354v-2.055h0.164v5.777c0,0.195,0.159,0.354,0.354,0.354s0.354-0.158,0.354-0.354v-3.367h0.176v3.367
				c0,0.195,0.159,0.354,0.354,0.354s0.354-0.158,0.354-0.354v-5.777h0.164v2.055c0,0.195,0.159,0.354,0.354,0.354
				s0.354-0.158,0.354-0.354v-2.633C266.132,286.441,265.973,286.281,265.777,286.281z"/>
			<circle fill="#FFFFFF" cx="264.463" cy="285.242" r="0.844"/>
		</g>
		<g>
			<circle fill="#FFFFFF" cx="269.598" cy="285.242" r="0.844"/>
			<path fill="#FFFFFF" d="M271.574,289.105l-0.637-2.555c-0.002-0.01-0.009-0.016-0.012-0.025
				c-0.008-0.021-0.018-0.043-0.029-0.063c-0.012-0.021-0.023-0.041-0.039-0.059c-0.015-0.016-0.03-0.027-0.047-0.041
				c-0.018-0.014-0.035-0.027-0.056-0.037c-0.021-0.012-0.045-0.02-0.068-0.025c-0.021-0.006-0.039-0.01-0.06-0.012
				c-0.012-0.002-0.021-0.008-0.033-0.008h-1.99c-0.012,0-0.021,0.006-0.033,0.008c-0.021,0.002-0.039,0.006-0.058,0.012
				c-0.025,0.006-0.049,0.014-0.071,0.025c-0.019,0.01-0.035,0.021-0.052,0.035c-0.019,0.014-0.035,0.027-0.051,0.045
				c-0.015,0.018-0.025,0.035-0.037,0.055c-0.012,0.021-0.022,0.041-0.03,0.064c-0.003,0.01-0.01,0.016-0.012,0.025l-0.637,2.555
				c-0.048,0.189,0.068,0.383,0.258,0.43c0.029,0.006,0.058,0.01,0.086,0.01c0.159,0,0.304-0.107,0.344-0.268l0.491-1.971v0.594
				l-0.743,2.984h0.743v2.107c0,0.195,0.159,0.354,0.354,0.354s0.354-0.158,0.354-0.354v-2.107h0.176v2.107
				c0,0.195,0.159,0.354,0.354,0.354s0.354-0.158,0.354-0.354v-2.107h0.743l-0.742-2.979l-0.001-0.004v-0.596l0.491,1.971
				c0.04,0.16,0.185,0.268,0.344,0.268c0.028,0,0.057-0.004,0.086-0.01C271.506,289.488,271.622,289.295,271.574,289.105z"/>
		</g>
	</g>
	<text transform="matrix(0.9 0 0 1 252.0928 301.7373)"><tspan x="0" y="0" font-family="'Arial-Black'" font-size="3.5">Le News del </tspan><tspan x="0" y="3.5" font-family="'Arial-Black'" font-size="3.5">Carosello</tspan><tspan x="0" y="7" font-family="'ArialMT'" font-size="3.5">33N - 64m²</tspan></text>
	<text transform="matrix(0.9 0 0 1 321.3433 150.0713)"><tspan x="0" y="0" font-family="'Arial-Black'" font-size="4">Seacret</tspan><tspan x="0" y="4" font-family="'ArialMT'" font-size="4">5A - 25m²</tspan></text>
	<text transform="matrix(0.9 0 0 1 338.1763 161.9043)"><tspan x="0" y="0" font-family="'Arial-Black'" font-size="3.5">Swarovsky</tspan><tspan x="0" y="3.5" font-family="'ArialMT'" font-size="3.5">38 - 66m²</tspan></text>
	<text transform="matrix(0.9 0 0 1 286.1758 166.5708)"><tspan x="0" y="0" font-family="'Arial-Black'" font-size="4">Nara</tspan><tspan x="0" y="4" font-family="'ArialMT'" font-size="4">39 - 55m²</tspan></text>
	<text transform="matrix(0.9 0 0 1 296.8428 188.2368)"><tspan x="0" y="0" font-family="'Arial-Black'" font-size="5.5">Z</tspan><tspan x="0" y="6.5" font-family="'ArialMT'" font-size="5.5">53 - 175m²</tspan></text>
	<text transform="matrix(0.9 0 0 1 287.3428 212.7373)"><tspan x="0" y="0" font-family="'Arial-Black'" font-size="5.5">Promod</tspan><tspan x="0" y="6.5" font-family="'ArialMT'" font-size="5.5">50 - 163m²</tspan></text>
	<text transform="matrix(-0.0033 -0.5757 1 -0.0012 266.7529 231.5352)" font-family="'Arial-Black'" font-size="7.4426">FootLocker</text>
	<text transform="matrix(0.9 0 0 1 219.0088 197.5708)"><tspan x="0" y="0" font-family="'Arial-Black'" font-size="5.5">Benetton</tspan><tspan x="0" y="6.5" font-family="'ArialMT'" font-size="5.5">47/48 - 436m²</tspan></text>
	<text transform="matrix(0.9 0 0 1 95.5088 205.3208)"><tspan x="0" y="0" font-family="'Arial-Black'" font-size="8">Oviesse</tspan><tspan x="0" y="8.5" font-family="'ArialMT'" font-size="8">4 - 1.948m²</tspan></text>
	<text transform="matrix(0.9 0 0 1 82.5088 285.0703)"><tspan x="0" y="0" font-family="'Arial-Black'" font-size="8">Autogrill</tspan><tspan x="0" y="8.5" font-family="'ArialMT'" font-size="8">5 - 1.118m²</tspan></text>
	<text transform="matrix(0.9 0 0 1 28.2588 213.3208)"><tspan x="0" y="0" font-family="'Arial-Black'" font-size="5.5">Gommista</tspan><tspan x="0" y="6.5" font-family="'ArialMT'" font-size="5.5">73A - 180m²</tspan></text>
	<text transform="matrix(0.9 0 0 1 13.5088 237.0703)"><tspan x="0" y="0" font-family="'Arial-Black'" font-size="5.5">Shell</tspan><tspan x="0" y="6.5" font-family="'ArialMT'" font-size="5.5">75C - 700m²</tspan></text>
	<text transform="matrix(0.9 0 0 1 23.7588 281.3203)"><tspan x="0" y="0" font-family="'Arial-Black'" font-size="5.5">Car Wash</tspan><tspan x="0" y="6.5" font-family="'ArialMT'" font-size="5.5">74B - 240m²</tspan></text>
	<text transform="matrix(0.9 0 0 1 197.3428 203.5708)"><tspan x="0" y="0" font-family="'Arial-Black'" font-size="4">Sisley</tspan><tspan x="0" y="4" font-family="'ArialMT'" font-size="4">46 - 160m²</tspan></text>
	<text transform="matrix(0.9 0 0 1 180.8428 194.5708)"><tspan x="0" y="0" font-family="'Arial-Black'" font-size="3.25">Intimissimi</tspan><tspan x="0" y="3.5" font-family="'ArialMT'" font-size="3.25">45 - 67m²</tspan></text>
	<text transform="matrix(0.6786 0 0 1 149.1919 186.1934)"><tspan x="0" y="0" font-family="'Arial-Black'" font-size="2.6094">Tabaccheria</tspan><tspan x="0" y="3.914" font-family="'ArialMT'" font-size="2.6094">3 - 22m²</tspan></text>
	<text transform="matrix(0.9 0 0 1 143.7607 179.1543)"><tspan x="0" y="0" font-family="'Arial-Black'" font-size="3.25">Galante</tspan><tspan x="0" y="3.5" font-family="'ArialMT'" font-size="3.25">2 - 33m²</tspan></text>
	<text transform="matrix(0.9 0 0 1 143.7607 169.8203)"><tspan x="0" y="0" font-family="'Arial-Black'" font-size="3.25">Casa Mia</tspan><tspan x="0" y="3.5" font-family="'ArialMT'" font-size="3.25">1 - 56m²</tspan></text>
	<text transform="matrix(0 -0.9 1 0 319.8428 228.5693)"><tspan x="0" y="0" font-family="'Arial-Black'" font-size="3.5">Accessorize</tspan><tspan x="0" y="3.5" font-family="'ArialMT'" font-size="3.5">51 - 79m²</tspan></text>
	<text transform="matrix(0 -0.9 1 0 336.6758 225.4023)"><tspan x="0" y="0" font-family="'Arial-Black'" font-size="4.5">Max &amp; Co</tspan><tspan x="0" y="4.5" font-family="'ArialMT'" font-size="4.5">52 - 98m²</tspan></text>
	<text transform="matrix(0.9 0 0 1 286.1758 176.7373)"><tspan x="0" y="0" font-family="'Arial-Black'" font-size="3">Mumble Mumble</tspan><tspan x="0" y="3" font-family="'ArialMT'" font-size="3">54 - 60m²</tspan></text>
	<text transform="matrix(0.9 0 0 1 330.5098 172.7378)"><tspan x="0" y="0" font-family="'Arial-Black'" font-size="4.5">Kaidor</tspan><tspan x="0" y="4.5" font-family="'ArialMT'" font-size="4.5">55 - 111m²</tspan></text>
	<text transform="matrix(0 -0.9 1 0 404.6768 180.2383)"><tspan x="0" y="0" font-family="'Arial-Black'" font-size="3.5">My Fragrances</tspan><tspan x="0" y="3.5" font-family="'ArialMT'" font-size="3.5">35 - 66m²</tspan></text>
	<text transform="matrix(0 -0.9 1 0 385.8438 180.2383)"><tspan x="0" y="0" font-family="'Arial-Black'" font-size="4.5">Lively</tspan><tspan x="0" y="4.5" font-family="'ArialMT'" font-size="4.5">36 - 121m²</tspan></text>
	<text transform="matrix(0 -0.9 1 0 374.1768 180.2383)"><tspan x="0" y="0" font-family="'Arial-Black'" font-size="4.5">Giscal Way</tspan><tspan x="0" y="4.5" font-family="'ArialMT'" font-size="4.5">37 - 84m²</tspan></text>
	<text transform="matrix(0.9 0 0 1 162.3428 143.7373)"><tspan x="0" y="0" font-family="'Arial-Black'" font-size="4">Voice</tspan><tspan x="0" y="4" font-family="'ArialMT'" font-size="4">31E - 30m²</tspan></text>
	<text transform="matrix(0.9 0 0 1 180.6758 175.7373)"><tspan x="0" y="0" font-family="'Arial-Black'" font-size="4.5">Geox</tspan><tspan x="0" y="4.5" font-family="'ArialMT'" font-size="4.5">44 - 119m²</tspan></text>
	<text transform="matrix(0.9 0 0 1 193.1758 158.9033)"><tspan x="0" y="0" font-family="'Arial-Black'" font-size="4.5">Tezenis</tspan><tspan x="0" y="4.5" font-family="'ArialMT'" font-size="4.5">43 - 173m²</tspan></text>
	<text transform="matrix(0 -0.9 1 0 222.0098 188.4043)"><tspan x="0" y="0" font-family="'Arial-Black'" font-size="4.5">Imperial Store</tspan><tspan x="0" y="4.5" font-family="'ArialMT'" font-size="4.5">42 - 125m²</tspan></text>
	<text transform="matrix(0.9 0 0 1 234.0098 158.9033)"><tspan x="0" y="0" font-family="'Arial-Black'" font-size="4.5">Cinti</tspan><tspan x="0" y="4.5" font-family="'ArialMT'" font-size="4.5">41</tspan><tspan x="0" y="9" font-family="'ArialMT'" font-size="4.5">141m²</tspan></text>
	<text transform="matrix(0.9 0 0 1 254.6768 158.9033)"><tspan x="0" y="0" font-family="'Arial-Black'" font-size="4.5">Adidas</tspan><tspan x="0" y="4.5" font-family="'ArialMT'" font-size="4.5">40 - 252m²</tspan></text>
	<g>
		<path d="M656.039,168.103c0,0.772-0.626,1.398-1.399,1.398h-7.691c-0.772,0-1.4-0.626-1.4-1.398v-6.767
			c0-0.772,0.628-1.398,1.4-1.398h7.691c0.773,0,1.399,0.626,1.399,1.398V168.103z"/>
		<g>
			<g>
				<path fill="#FFFFFF" d="M648.604,163.183h-1.934c-0.145,0-0.26,0.116-0.26,0.259v1.935c0,0.144,0.115,0.26,0.26,0.26
					c0.144,0,0.261-0.116,0.261-0.26v-1.508h0.12v4.243c0,0.144,0.117,0.26,0.261,0.26c0.143,0,0.26-0.116,0.26-0.26v-2.473h0.129
					v2.473c0,0.144,0.117,0.26,0.261,0.26c0.145,0,0.26-0.116,0.26-0.26v-4.243h0.122v1.508c0,0.144,0.117,0.26,0.261,0.26
					c0.143,0,0.26-0.116,0.26-0.26v-1.935C648.864,163.299,648.747,163.183,648.604,163.183z"/>
				<circle fill="#FFFFFF" cx="647.638" cy="162.419" r="0.62"/>
			</g>
			<g>
				<path fill="#FFFFFF" d="M651.76,163.183h-1.933c-0.145,0-0.261,0.116-0.261,0.259v1.935c0,0.144,0.116,0.26,0.261,0.26
					c0.143,0,0.26-0.116,0.26-0.26v-1.508h0.121v4.243c0,0.144,0.117,0.26,0.26,0.26s0.261-0.116,0.261-0.26v-2.473h0.128v2.473
					c0,0.144,0.118,0.26,0.261,0.26c0.145,0,0.261-0.116,0.261-0.26v-4.243h0.122v1.508c0,0.144,0.117,0.26,0.26,0.26
					s0.261-0.116,0.261-0.26v-1.935C652.021,163.299,651.902,163.183,651.76,163.183z"/>
				<circle fill="#FFFFFF" cx="650.794" cy="162.419" r="0.62"/>
			</g>
			<g>
				<path fill="#FFFFFF" d="M654.916,163.183h-1.934c-0.145,0-0.26,0.116-0.26,0.259v1.935c0,0.144,0.115,0.26,0.26,0.26
					c0.144,0,0.261-0.116,0.261-0.26v-1.508h0.12v4.243c0,0.144,0.117,0.26,0.261,0.26c0.143,0,0.26-0.116,0.26-0.26v-2.473h0.129
					v2.473c0,0.144,0.117,0.26,0.26,0.26c0.146,0,0.261-0.116,0.261-0.26v-4.243h0.122v1.508c0,0.144,0.117,0.26,0.261,0.26
					c0.143,0,0.26-0.116,0.26-0.26v-1.935C655.176,163.299,655.059,163.183,654.916,163.183z"/>
				<circle fill="#FFFFFF" cx="653.949" cy="162.419" r="0.62"/>
			</g>
		</g>
		<g>
			<g>
				<g>
					
						<line fill="none" stroke="#000000" stroke-width="0.851" stroke-linecap="round" stroke-linejoin="bevel" x1="648.478" y1="153.643" x2="648.478" y2="156.9"/>
					<g>
						<polygon points="646.79,156.403 648.487,159.342 650.185,156.403 						"/>
					</g>
				</g>
			</g>
			<g>
				<g>
					
						<line fill="none" stroke="#000000" stroke-width="0.851" stroke-linecap="round" stroke-linejoin="bevel" x1="648.478" y1="153.643" x2="648.478" y2="156.9"/>
					<g>
						<polygon points="646.79,156.403 648.487,159.342 650.185,156.403 						"/>
					</g>
				</g>
			</g>
			<g>
				<g>
					
						<line fill="none" stroke="#000000" stroke-width="0.851" stroke-linecap="round" stroke-linejoin="bevel" x1="653.109" y1="159.342" x2="653.109" y2="156.085"/>
					<g>
						<polygon points="654.797,156.582 653.1,153.643 651.402,156.582 						"/>
					</g>
				</g>
			</g>
		</g>
	</g>
	<g>
		<g>
			<path d="M681.547,177.215h-1.777c-0.132,0-0.24,0.107-0.24,0.24v1.779c0,0.131,0.108,0.238,0.24,0.238s0.239-0.107,0.239-0.238
				v-1.387h0.111v3.901c0,0.133,0.107,0.24,0.239,0.24s0.239-0.107,0.239-0.24v-2.308h0.119v2.308c0,0.133,0.107,0.24,0.239,0.24
				s0.239-0.107,0.239-0.24v-3.901h0.111v1.387c0,0.131,0.107,0.238,0.239,0.238s0.24-0.107,0.24-0.238v-1.779
				C681.787,177.323,681.679,177.215,681.547,177.215z"/>
			<circle cx="680.658" cy="176.514" r="0.475"/>
		</g>
		<path d="M685.119,176.92h-1.702c-0.287,0-0.559,0.125-0.744,0.344l-3.492,4.119h-1.25c-0.539,0-0.977,0.438-0.977,0.977
			c0,0.537,0.438,0.975,0.977,0.975h1.702c0.286,0,0.558-0.127,0.745-0.346l3.49-4.118h1.251c0.537,0,0.975-0.438,0.975-0.977
			C686.094,177.358,685.656,176.92,685.119,176.92z"/>
		<path fill="#FFFFFF" d="M685.119,176.743h-1.702c-0.34,0-0.66,0.148-0.88,0.407l-3.438,4.056h-1.168
			c-0.637,0-1.153,0.518-1.153,1.155c0,0.635,0.517,1.152,1.153,1.152h1.702c0.338,0,0.659-0.148,0.88-0.408l3.438-4.055h1.169
			c0.635,0,1.151-0.518,1.151-1.154C686.271,177.26,685.754,176.743,685.119,176.743z M685.119,178.872h-1.251l-3.49,4.118
			c-0.188,0.219-0.459,0.346-0.745,0.346h-1.702c-0.539,0-0.977-0.438-0.977-0.975c0-0.539,0.438-0.977,0.977-0.977h1.25
			l3.492-4.119c0.186-0.219,0.457-0.344,0.744-0.344h1.702c0.537,0,0.975,0.438,0.975,0.975
			C686.094,178.434,685.656,178.872,685.119,178.872z"/>
	</g>
	<text transform="matrix(0 -0.9 1 0 414.1777 168.9043)"><tspan x="0" y="0" fill="#FFFFFF" font-family="'Arial-Black'" font-size="3.5">H3G</tspan><tspan x="0" y="3.5" fill="#FFFFFF" font-family="'ArialMT'" font-size="3.5">34 - 39m²</tspan></text>
	<text transform="matrix(0.8735 0 0 1 510.6934 132.4048)"><tspan x="0" y="0" font-family="'Arial-Black'" font-size="4">Claire’s</tspan><tspan x="0" y="4" font-family="'ArialMT'" font-size="4">16E - 66m²</tspan></text>
	<text transform="matrix(0.9 0 0 1 572.9697 172.4883)"><tspan x="0" y="0" font-family="'Arial-Black'" font-size="4.5">Stradivarius</tspan><tspan x="0" y="4.5" font-family="'ArialMT'" font-size="4.5">13E+14E - 346,5m²</tspan></text>
	<text transform="matrix(-0.0173 -1.1595 0.9999 0.0119 272.4136 230.1719)" font-family="'ArialMT'" font-size="4.3078">49 - 317m²</text>
	<text transform="matrix(-0.0075 -0.6657 0.9998 -0.0211 575.6602 296.6768)" font-family="'Arial-Black'" font-size="7">Desigual</text>
</g>
<g id="legend">
</g>
</svg>
