<?xml version="1.0" encoding="UTF-8" standalone="no"?><svg xmlns="http://www.w3.org/2000/svg" xmlns:xlink="http://www.w3.org/1999/xlink" contentScriptType="application/ecmascript" contentStyleType="text/css" height="1800px" preserveAspectRatio="none" style="width:3997px;height:1800px;" version="1.1" viewBox="0 0 3997 1800" width="3997.9167px" zoomAndPan="magnify"><defs><filter height="300%" id="fzh940j" width="300%" x="-1" y="-1"><feGaussianBlur result="blurOut" stdDeviation="4.166666666666667"/><feColorMatrix in="blurOut" result="blurOut2" type="matrix" values="0 0 0 0 0 0 0 0 0 0 0 0 0 0 0 0 0 0 .4 0"/><feOffset dx="8.333333333333334" dy="8.333333333333334" in="blurOut2" result="blurOut3"/><feBlend in="SourceGraphic" in2="blurOut3" mode="normal"/></filter></defs><g><rect fill="#FEFECE" filter="url(#fzh940j)" height="890.8529" rx="26.0417" ry="26.0417" style="stroke: #A80036; stroke-width: 3.125;" width="929.1667" x="12.5" y="456.25"/><rect fill="#FFFFFF" height="820.8333" rx="26.0417" ry="26.0417" style="stroke: #FFFFFF; stroke-width: 2.0833333333333335;" width="916.6667" x="18.75" y="520.0195"/><line style="stroke: #A80036; stroke-width: 3.125;" x1="12.5" x2="941.6667" y1="513.7695" y2="513.7695"/><text fill="#000000" font-family="sans-serif" font-size="29.1667" lengthAdjust="spacingAndGlyphs" textLength="708.3333" x="122.9167" y="496.9442">IncomingDocumentCategorisationStateTransitionType</text><rect fill="#FEFECE" filter="url(#fzh940j)" height="104.1667" rx="26.0417" ry="26.0417" style="stroke: #A80036; stroke-width: 3.125;" width="106.25" x="332.7688" y="540.8529"/><line style="stroke: #A80036; stroke-width: 3.125;" x1="332.7688" x2="439.0188" y1="598.3724" y2="598.3724"/><text fill="#000000" font-family="sans-serif" font-size="29.1667" lengthAdjust="spacingAndGlyphs" textLength="64.5833" x="353.6021" y="581.547">NEW</text><rect fill="#FEFECE" filter="url(#fzh940j)" height="104.1667" rx="26.0417" ry="26.0417" style="stroke: #A80036; stroke-width: 3.125;" width="250" x="260.8938" y="790.8529"/><line style="stroke: #A80036; stroke-width: 3.125;" x1="260.8938" x2="510.8938" y1="848.3724" y2="848.3724"/><text fill="#000000" font-family="sans-serif" font-size="29.1667" lengthAdjust="spacingAndGlyphs" textLength="208.3333" x="281.7271" y="831.547">CATEGORISED</text><rect fill="#FEFECE" filter="url(#fzh940j)" height="104.1667" rx="26.0417" ry="26.0417" style="stroke: #A80036; stroke-width: 3.125;" width="220.8333" x="275.4771" y="1211.6862"/><line style="stroke: #A80036; stroke-width: 3.125;" x1="275.4771" x2="496.3104" y1="1269.2057" y2="1269.2057"/><text fill="#000000" font-family="sans-serif" font-size="29.1667" lengthAdjust="spacingAndGlyphs" textLength="179.1667" x="296.3104" y="1252.3804">PROCESSED</text><ellipse cx="102.5598" cy="592.9362" fill="#000000" filter="url(#fzh940j)" rx="20.8333" ry="20.8333" style="stroke: none; stroke-width: 2.0833333333333335;"/><path d="M123.8558,592.9362 C165.3413,592.9362 258.4563,592.9362 321.7458,592.9362 " fill="none" style="stroke: #A80036; stroke-width: 2.0833333333333335;"/><polygon fill="#A80036" points="332.4146,592.9362,313.6646,584.6029,321.9979,592.9362,313.6646,601.2695,332.4146,592.9362" style="stroke: #A80036; stroke-width: 2.0833333333333335;"/><text fill="#000000" font-family="sans-serif" font-size="27.0833" lengthAdjust="spacingAndGlyphs" textLength="168.75" x="143.7056" y="579.3844">INSTANTIATE</text><path d="M385.8938,645.3612 C385.8938,684.3029 385.8938,738.3883 385.8938,779.8008 " fill="none" style="stroke: #A80036; stroke-width: 2.0833333333333335;"/><polygon fill="#A80036" points="385.8938,790.5799,394.2271,771.8299,385.8938,780.1633,377.5604,771.8299,385.8938,790.5799" style="stroke: #A80036; stroke-width: 2.0833333333333335;"/><text fill="#000000" font-family="sans-serif" font-size="27.0833" lengthAdjust="spacingAndGlyphs" textLength="0" x="487.9771" y="712.7177"/><text fill="#000000" font-family="sans-serif" font-size="27.0833" lengthAdjust="spacingAndGlyphs" textLength="175" x="404.6438" y="746.7834">CATEGORISE</text><path d="M260.4375,865.7695 C187.5231,880.6716 105.7865,903.2737 83.8098,932.5195 C19.2856,1018.3862 19.2856,1088.3195 83.8098,1174.1862 C106.1631,1203.9331 190.3427,1226.8077 264.1792,1241.6958 " fill="none" style="stroke: #A80036; stroke-width: 2.0833333333333335;"/><polygon fill="#A80036" points="274.9896,1243.8341,258.2125,1232.0216,264.7708,1241.8133,254.9791,1248.3716,274.9896,1243.8341" style="stroke: #A80036; stroke-width: 2.0833333333333335;"/><text fill="#000000" font-family="sans-serif" font-size="27.0833" lengthAdjust="spacingAndGlyphs" textLength="147.9167" x="85.8931" y="997.0927">PROCESS_</text><text fill="#000000" font-family="sans-serif" font-size="27.0833" lengthAdjust="spacingAndGlyphs" textLength="95.8333" x="111.9348" y="1031.1584">ORDER</text><text fill="#000000" font-family="sans-serif" font-size="27.0833" lengthAdjust="spacingAndGlyphs" textLength="137.5" x="91.1015" y="1065.2242">[docType="</text><text fill="#000000" font-family="sans-serif" font-size="27.0833" lengthAdjust="spacingAndGlyphs" textLength="147.9167" x="85.8931" y="1099.29">INCOMING_</text><text fill="#000000" font-family="sans-serif" font-size="27.0833" lengthAdjust="spacingAndGlyphs" textLength="114.5833" x="102.5598" y="1133.3557">ORDER"]</text><path d="M310.2938,895.9445 C299.5542,906.6924 290.0521,918.9466 283.8104,932.5195 C238.9288,1030.1008 238.9288,1076.6049 283.8104,1174.1862 C288.5896,1184.5774 295.2792,1194.1966 302.9729,1202.9583 " fill="none" style="stroke: #A80036; stroke-width: 2.0833333333333335;"/><polygon fill="#A80036" points="310.2938,1210.7614,303.5392,1191.3866,303.1654,1203.1658,291.3862,1202.7919,310.2938,1210.7614" style="stroke: #A80036; stroke-width: 2.0833333333333335;"/><text fill="#000000" font-family="sans-serif" font-size="27.0833" lengthAdjust="spacingAndGlyphs" textLength="147.9167" x="291.1021" y="997.0927">PROCESS_</text><text fill="#000000" font-family="sans-serif" font-size="27.0833" lengthAdjust="spacingAndGlyphs" textLength="108.3333" x="310.8938" y="1031.1584">INVOICE</text><text fill="#000000" font-family="sans-serif" font-size="27.0833" lengthAdjust="spacingAndGlyphs" textLength="127.0833" x="301.5188" y="1065.2242">[docType=</text><text fill="#000000" font-family="sans-serif" font-size="27.0833" lengthAdjust="spacingAndGlyphs" textLength="158.3333" x="285.8938" y="1099.29">"INCOMING_</text><text fill="#000000" font-family="sans-serif" font-size="27.0833" lengthAdjust="spacingAndGlyphs" textLength="127.0833" x="301.5188" y="1133.3557">INVOICE"]</text><path d="M427.9188,895.0383 C435.4813,906.6654 442.2438,919.4779 446.3104,932.5195 C478.2708,1035.0612 478.2708,1071.6445 446.3104,1174.1862 C443.2604,1183.9677 438.6938,1193.6204 433.4125,1202.7406 " fill="none" style="stroke: #A80036; stroke-width: 2.0833333333333335;"/><polygon fill="#A80036" points="427.9188,1211.6683,444.8409,1200.0644,433.3767,1202.796,430.6452,1191.3318,427.9188,1211.6683" style="stroke: #A80036; stroke-width: 2.0833333333333335;"/><text fill="#000000" font-family="sans-serif" font-size="27.0833" lengthAdjust="spacingAndGlyphs" textLength="147.9167" x="476.5188" y="962.7177">PROCESS_</text><text fill="#000000" font-family="sans-serif" font-size="27.0833" lengthAdjust="spacingAndGlyphs" textLength="102.0833" x="499.4354" y="996.7834">LOCAL_</text><text fill="#000000" font-family="sans-serif" font-size="27.0833" lengthAdjust="spacingAndGlyphs" textLength="108.3333" x="496.3104" y="1030.8492">INVOICE</text><text fill="#000000" font-family="sans-serif" font-size="27.0833" lengthAdjust="spacingAndGlyphs" textLength="127.0833" x="486.9354" y="1064.915">[docType=</text><text fill="#000000" font-family="sans-serif" font-size="27.0833" lengthAdjust="spacingAndGlyphs" textLength="158.3333" x="471.3104" y="1098.9807">"INCOMING_</text><text fill="#000000" font-family="sans-serif" font-size="27.0833" lengthAdjust="spacingAndGlyphs" textLength="102.0833" x="499.4354" y="1133.0465">LOCAL_</text><text fill="#000000" font-family="sans-serif" font-size="27.0833" lengthAdjust="spacingAndGlyphs" textLength="127.0833" x="486.9354" y="1167.1122">INVOICE"]</text><path d="M511.1813,857.3174 C559.5938,868.8966 610.3833,890.9174 640.0604,932.5195 C702.4333,1019.9591 702.4333,1086.7466 640.0604,1174.1862 C609.5708,1216.9266 556.7958,1239.0002 507.2104,1250.3172 " fill="none" style="stroke: #A80036; stroke-width: 2.0833333333333335;"/><polygon fill="#A80036" points="496.6854,1252.5724,516.7649,1256.7941,506.8711,1250.3908,513.2743,1240.497,496.6854,1252.5724" style="stroke: #A80036; stroke-width: 2.0833333333333335;"/><text fill="#000000" font-family="sans-serif" font-size="27.0833" lengthAdjust="spacingAndGlyphs" textLength="147.9167" x="705.6854" y="962.7177">PROCESS_</text><text fill="#000000" font-family="sans-serif" font-size="27.0833" lengthAdjust="spacingAndGlyphs" textLength="183.3333" x="687.9771" y="996.7834">CORPORATE_</text><text fill="#000000" font-family="sans-serif" font-size="27.0833" lengthAdjust="spacingAndGlyphs" textLength="108.3333" x="725.4771" y="1030.8492">INVOICE</text><text fill="#000000" font-family="sans-serif" font-size="27.0833" lengthAdjust="spacingAndGlyphs" textLength="127.0833" x="716.1021" y="1064.915">[docType=</text><text fill="#000000" font-family="sans-serif" font-size="27.0833" lengthAdjust="spacingAndGlyphs" textLength="158.3333" x="700.4771" y="1098.9807">"INCOMING_</text><text fill="#000000" font-family="sans-serif" font-size="27.0833" lengthAdjust="spacingAndGlyphs" textLength="183.3333" x="687.9771" y="1133.0465">CORPORATE_</text><text fill="#000000" font-family="sans-serif" font-size="27.0833" lengthAdjust="spacingAndGlyphs" textLength="127.0833" x="716.1021" y="1167.1122">INVOICE"]</text><rect fill="#FEFECE" filter="url(#fzh940j)" height="639.2253" rx="26.0417" ry="26.0417" style="stroke: #A80036; stroke-width: 3.125;" width="706.25" x="1015.625" y="582.2917"/><rect fill="#FFFFFF" height="495.8333" rx="26.0417" ry="26.0417" style="stroke: #FFFFFF; stroke-width: 2.0833333333333335;" width="693.75" x="1021.875" y="719.4336"/><line style="stroke: #A80036; stroke-width: 3.125;" x1="1015.625" x2="1721.875" y1="713.1836" y2="713.1836"/><text fill="#000000" font-family="sans-serif" font-size="29.1667" lengthAdjust="spacingAndGlyphs" textLength="172.9167" x="1282.2917" y="622.9858">BankAccount</text><text fill="#000000" font-family="sans-serif" font-size="29.1667" lengthAdjust="spacingAndGlyphs" textLength="145.8333" x="1295.8333" y="659.672">Verification</text><text fill="#000000" font-family="sans-serif" font-size="29.1667" lengthAdjust="spacingAndGlyphs" textLength="266.6667" x="1235.4167" y="696.3582">StateTransitionType</text><rect fill="#FEFECE" filter="url(#fzh940j)" height="104.1667" rx="26.0417" ry="26.0417" style="stroke: #A80036; stroke-width: 3.125;" width="247.9167" x="1306.25" y="748.6003"/><line style="stroke: #A80036; stroke-width: 3.125;" x1="1306.25" x2="1554.1667" y1="806.1198" y2="806.1198"/><text fill="#000000" font-family="sans-serif" font-size="29.1667" lengthAdjust="spacingAndGlyphs" textLength="206.25" x="1327.0833" y="789.2944">NOT_VERIFIED</text><rect fill="#FEFECE" filter="url(#fzh940j)" height="104.1667" rx="26.0417" ry="26.0417" style="stroke: #A80036; stroke-width: 3.125;" width="170.8333" x="1344.7917" y="1077.7669"/><line style="stroke: #A80036; stroke-width: 3.125;" x1="1344.7917" x2="1515.625" y1="1135.2865" y2="1135.2865"/><text fill="#000000" font-family="sans-serif" font-size="29.1667" lengthAdjust="spacingAndGlyphs" textLength="129.1667" x="1365.625" y="1118.4611">VERIFIED</text><ellipse cx="1059.375" cy="800.6836" fill="#000000" filter="url(#fzh940j)" rx="20.8333" ry="20.8333" style="stroke: none; stroke-width: 2.0833333333333335;"/><path d="M1080.3752,800.6836 C1121.4327,800.6836 1215.3404,800.6836 1295.5313,800.6836 " fill="none" style="stroke: #A80036; stroke-width: 2.0833333333333335;"/><polygon fill="#A80036" points="1306.2438,800.6836,1287.4938,792.3503,1295.8271,800.6836,1287.4938,809.0169,1306.2438,800.6836" style="stroke: #A80036; stroke-width: 2.0833333333333335;"/><text fill="#000000" font-family="sans-serif" font-size="27.0833" lengthAdjust="spacingAndGlyphs" textLength="0" x="1197.3958" y="753.7984"/><text fill="#000000" font-family="sans-serif" font-size="27.0833" lengthAdjust="spacingAndGlyphs" textLength="168.75" x="1117.1875" y="787.8642">INSTANTIATE</text><path d="M1430.2083,852.8357 C1430.2083,910.3315 1430.2083,1004.6571 1430.2083,1066.4898 " fill="none" style="stroke: #A80036; stroke-width: 2.0833333333333335;"/><polygon fill="#A80036" points="1430.2083,1077.6411,1438.5417,1058.8911,1430.2083,1067.2244,1421.875,1058.8911,1430.2083,1077.6411" style="stroke: #A80036; stroke-width: 2.0833333333333335;"/><text fill="#000000" font-family="sans-serif" font-size="27.0833" lengthAdjust="spacingAndGlyphs" textLength="112.5" x="1485.4167" y="960.0484">VERIFY_</text><text fill="#000000" font-family="sans-serif" font-size="27.0833" lengthAdjust="spacingAndGlyphs" textLength="218.75" x="1432.2917" y="994.1142">BANK_ACCOUNT</text><rect fill="#FEFECE" filter="url(#fzh940j)" height="1770.4753" rx="26.0417" ry="26.0417" style="stroke: #A80036; stroke-width: 3.125;" width="1564.5833" x="1794.7917" y="16.6667"/><rect fill="#FFFFFF" height="1627.0833" rx="26.0417" ry="26.0417" style="stroke: #FFFFFF; stroke-width: 2.0833333333333335;" width="1552.0833" x="1801.0417" y="153.8086"/><line style="stroke: #A80036; stroke-width: 3.125;" x1="1794.7917" x2="3359.375" y1="147.5586" y2="147.5586"/><text fill="#000000" font-family="sans-serif" font-size="29.1667" lengthAdjust="spacingAndGlyphs" textLength="208.3333" x="2472.9167" y="57.3608">IncomingInvoice</text><text fill="#000000" font-family="sans-serif" font-size="29.1667" lengthAdjust="spacingAndGlyphs" textLength="116.6667" x="2518.75" y="94.047">Approval</text><text fill="#000000" font-family="sans-serif" font-size="29.1667" lengthAdjust="spacingAndGlyphs" textLength="266.6667" x="2443.75" y="130.7332">StateTransitionType</text><rect fill="#FEFECE" filter="url(#fzh940j)" height="104.1667" rx="26.0417" ry="26.0417" style="stroke: #A80036; stroke-width: 3.125;" width="106.25" x="2412.7854" y="174.6419"/><line style="stroke: #A80036; stroke-width: 3.125;" x1="2412.7854" x2="2519.0354" y1="232.1615" y2="232.1615"/><text fill="#000000" font-family="sans-serif" font-size="29.1667" lengthAdjust="spacingAndGlyphs" textLength="64.5833" x="2433.6188" y="215.3361">NEW</text><rect fill="#FEFECE" filter="url(#fzh940j)" height="104.1667" rx="26.0417" ry="26.0417" style="stroke: #A80036; stroke-width: 3.125;" width="220.8333" x="2355.4938" y="391.3086"/><line style="stroke: #A80036; stroke-width: 3.125;" x1="2355.4938" x2="2576.3271" y1="448.8281" y2="448.8281"/><text fill="#000000" font-family="sans-serif" font-size="29.1667" lengthAdjust="spacingAndGlyphs" textLength="179.1667" x="2376.3271" y="432.0028">COMPLETED</text><polygon fill="#FBFB77" filter="url(#fzh940j)" points="2650.2854,416.3086,2650.2854,471.2077,3035.7021,471.2077,3035.7021,437.1419,3014.8688,416.3086,2650.2854,416.3086" style="stroke: #A80036; stroke-width: 2.0833333333333335;"/><polygon fill="#FBFB77" points="2650.2854,416.3086,2650.2854,435.0586,2576.3833,443.3919,2650.2854,451.7253,2650.2854,471.2077,3035.7021,471.2077,3035.7021,437.1419,3014.8688,416.3086,2650.2854,416.3086" style="stroke: #A80036; stroke-width: 2.0833333333333335;"/><line style="stroke: #A80036; stroke-width: 2.0833333333333335;" x1="3014.8688" x2="3014.8688" y1="416.3086" y2="437.1419"/><line style="stroke: #A80036; stroke-width: 2.0833333333333335;" x1="3035.7021" x2="3014.8688" y1="437.1419" y2="437.1419"/><text fill="#000000" font-family="sans-serif" font-size="27.0833" lengthAdjust="spacingAndGlyphs" textLength="341.6667" x="2662.7854" y="454.8401">immutable from this point on</text><rect fill="#FEFECE" filter="url(#fzh940j)" height="104.1667" rx="26.0417" ry="26.0417" style="stroke: #A80036; stroke-width: 3.125;" width="200" x="2111.7438" y="727.7669"/><line style="stroke: #A80036; stroke-width: 3.125;" x1="2111.7438" x2="2311.7438" y1="785.2865" y2="785.2865"/><text fill="#000000" font-family="sans-serif" font-size="29.1667" lengthAdjust="spacingAndGlyphs" textLength="158.3333" x="2132.5771" y="768.4611">APPROVED</text><rect fill="#FEFECE" filter="url(#fzh940j)" height="115.0391" rx="26.0417" ry="26.0417" style="stroke: #A80036; stroke-width: 3.125;" width="356.25" x="2564.8688" y="1039.2253"/><line style="stroke: #A80036; stroke-width: 3.125;" x1="2564.8688" x2="2921.1188" y1="1133.431" y2="1133.431"/><text fill="#000000" font-family="sans-serif" font-size="29.1667" lengthAdjust="spacingAndGlyphs" textLength="229.1667" x="2624.2438" y="1079.9194">APPROVED_BY_</text><text fill="#000000" font-family="sans-serif" font-size="29.1667" lengthAdjust="spacingAndGlyphs" textLength="306.25" x="2594.0354" y="1116.6056">COUNTRY_DIRECTOR</text><rect fill="#FEFECE" filter="url(#fzh940j)" height="115.0391" rx="26.0417" ry="26.0417" style="stroke: #A80036; stroke-width: 3.125;" width="339.5833" x="2925.2854" y="887.1419"/><line style="stroke: #A80036; stroke-width: 3.125;" x1="2925.2854" x2="3264.8688" y1="981.3477" y2="981.3477"/><text fill="#000000" font-family="sans-serif" font-size="29.1667" lengthAdjust="spacingAndGlyphs" textLength="229.1667" x="2976.3271" y="927.8361">APPROVED_AT_</text><text fill="#000000" font-family="sans-serif" font-size="29.1667" lengthAdjust="spacingAndGlyphs" textLength="289.5833" x="2954.4521" y="964.5223">CORPORATE_LEVEL</text><rect fill="#FEFECE" filter="url(#fzh940j)" height="104.1667" rx="26.0417" ry="26.0417" style="stroke: #A80036; stroke-width: 3.125;" width="170.8333" x="2830.4938" y="1401.7253"/><line style="stroke: #A80036; stroke-width: 3.125;" x1="2830.4938" x2="3001.3271" y1="1459.2448" y2="1459.2448"/><text fill="#000000" font-family="sans-serif" font-size="29.1667" lengthAdjust="spacingAndGlyphs" textLength="129.1667" x="2851.3271" y="1442.4194">PAYABLE</text><rect fill="#FEFECE" filter="url(#fzh940j)" height="104.1667" rx="26.0417" ry="26.0417" style="stroke: #A80036; stroke-width: 3.125;" width="106.25" x="2862.7854" y="1651.7253"/><line style="stroke: #A80036; stroke-width: 3.125;" x1="2862.7854" x2="2969.0354" y1="1709.2448" y2="1709.2448"/><text fill="#000000" font-family="sans-serif" font-size="29.1667" lengthAdjust="spacingAndGlyphs" textLength="64.5833" x="2883.6188" y="1692.4194">PAID</text><ellipse cx="2182.5771" cy="226.7253" fill="#000000" filter="url(#fzh940j)" rx="20.8333" ry="20.8333" style="stroke: none; stroke-width: 2.0833333333333335;"/><path d="M2203.8729,226.7253 C2245.3583,226.7253 2338.4729,226.7253 2401.7625,226.7253 " fill="none" style="stroke: #A80036; stroke-width: 2.0833333333333335;"/><polygon fill="#A80036" points="2412.4333,226.7253,2393.6833,218.3919,2402.0167,226.7253,2393.6833,235.0586,2412.4333,226.7253" style="stroke: #A80036; stroke-width: 2.0833333333333335;"/><text fill="#000000" font-family="sans-serif" font-size="27.0833" lengthAdjust="spacingAndGlyphs" textLength="168.75" x="2223.7229" y="213.1734">INSTANTIATE</text><path d="M2465.9104,279.169 C2465.9104,309.3815 2465.9104,348.0232 2465.9104,380.0044 " fill="none" style="stroke: #A80036; stroke-width: 2.0833333333333335;"/><polygon fill="#A80036" points="2465.9104,390.5732,2474.2438,371.8232,2465.9104,380.1565,2457.5771,371.8232,2465.9104,390.5732" style="stroke: #A80036; stroke-width: 2.0833333333333335;"/><text fill="#000000" font-family="sans-serif" font-size="27.0833" lengthAdjust="spacingAndGlyphs" textLength="147.9167" x="2467.9938" y="346.5068">COMPLETE</text><path d="M2354.9458,444.5128 C2194.975,445.7648 1911.6317,458.744 1847.1598,532.9753 C1806.48,579.8128 1809.8668,622.9815 1847.1598,672.5586 C1877.919,713.4482 2005.5892,743.4523 2101.2354,760.7273 " fill="none" style="stroke: #A80036; stroke-width: 2.0833333333333335;"/><polygon fill="#A80036" points="2111.5563,762.5628,2094.5588,751.0696,2101.3011,760.7355,2091.6352,767.4779,2111.5563,762.5628" style="stroke: #A80036; stroke-width: 2.0833333333333335;"/><text fill="#000000" font-family="sans-serif" font-size="27.0833" lengthAdjust="spacingAndGlyphs" textLength="200" x="1870.0765" y="563.1734">APPROVE_AS_</text><text fill="#000000" font-family="sans-serif" font-size="27.0833" lengthAdjust="spacingAndGlyphs" textLength="239.5833" x="1850.2848" y="597.2392">LEGAL_MANAGER</text><text fill="#000000" font-family="sans-serif" font-size="27.0833" lengthAdjust="spacingAndGlyphs" textLength="241.6667" x="1849.2431" y="631.3049">[property invoice &amp;&amp;</text><text fill="#000000" font-family="sans-serif" font-size="27.0833" lengthAdjust="spacingAndGlyphs" textLength="216.6667" x="1861.7431" y="665.3707">hasLegalCharges]</text><path d="M2355.2292,460.7294 C2271.7271,474.7732 2167.2125,498.6544 2140.9104,532.9753 C2103.1729,582.2148 2122.7979,613.2253 2140.9104,672.5586 C2145.8083,688.6044 2154.0646,704.4169 2163.2458,718.7148 " fill="none" style="stroke: #A80036; stroke-width: 2.0833333333333335;"/><polygon fill="#A80036" points="2169.0604,727.4107,2165.5695,707.1914,2163.272,718.7504,2151.713,716.4528,2169.0604,727.4107" style="stroke: #A80036; stroke-width: 2.0833333333333335;"/><text fill="#000000" font-family="sans-serif" font-size="27.0833" lengthAdjust="spacingAndGlyphs" textLength="200" x="2180.4938" y="563.1734">APPROVE_AS_</text><text fill="#000000" font-family="sans-serif" font-size="27.0833" lengthAdjust="spacingAndGlyphs" textLength="275" x="2142.9938" y="597.2392">PROJECT_MANAGER</text><text fill="#000000" font-family="sans-serif" font-size="27.0833" lengthAdjust="spacingAndGlyphs" textLength="241.6667" x="2159.6604" y="631.3049">[property invoice &amp;&amp;</text><text fill="#000000" font-family="sans-serif" font-size="27.0833" lengthAdjust="spacingAndGlyphs" textLength="137.5" x="2211.7438" y="665.3707">hasProject]</text><path d="M2467.8625,495.7336 C2467.2333,545.4669 2459.0792,621.3753 2420.0771,672.5586 C2395.4958,704.8169 2358.2896,727.9315 2322.0875,744.1232 " fill="none" style="stroke: #A80036; stroke-width: 2.0833333333333335;"/><polygon fill="#A80036" points="2311.9146,748.5086,2332.4318,748.736,2321.4798,744.3837,2325.832,733.4317,2311.9146,748.5086" style="stroke: #A80036; stroke-width: 2.0833333333333335;"/><text fill="#000000" font-family="sans-serif" font-size="27.0833" lengthAdjust="spacingAndGlyphs" textLength="200" x="2488.8271" y="563.1734">APPROVE_AS_</text><text fill="#000000" font-family="sans-serif" font-size="27.0833" lengthAdjust="spacingAndGlyphs" textLength="241.6667" x="2467.9938" y="597.2392">ASSET_MANAGER</text><text fill="#000000" font-family="sans-serif" font-size="27.0833" lengthAdjust="spacingAndGlyphs" textLength="241.6667" x="2467.9938" y="631.3049">[property invoice &amp;&amp;</text><text fill="#000000" font-family="sans-serif" font-size="27.0833" lengthAdjust="spacingAndGlyphs" textLength="58.3333" x="2559.6604" y="665.3707">else]</text><path d="M2577.0146,478.4628 C2638.6813,497.8482 2704.7771,520.8628 2713.8271,532.9753 C2742.7958,571.744 2744.3833,887.4398 2743.6292,1027.7003 " fill="none" style="stroke: #A80036; stroke-width: 2.0833333333333335;"/><polygon fill="#A80036" points="2743.5667,1038.2982,2752.0123,1019.5985,2743.6292,1027.8817,2735.346,1019.4985,2743.5667,1038.2982" style="stroke: #A80036; stroke-width: 2.0833333333333335;"/><text fill="#000000" font-family="sans-serif" font-size="27.0833" lengthAdjust="spacingAndGlyphs" textLength="147.9167" x="2815.9104" y="740.2568">APPROVE_</text><text fill="#000000" font-family="sans-serif" font-size="27.0833" lengthAdjust="spacingAndGlyphs" textLength="139.5833" x="2820.0771" y="774.3225">LOCAL_AS</text><text fill="#000000" font-family="sans-serif" font-size="27.0833" lengthAdjust="spacingAndGlyphs" textLength="293.75" x="2742.9938" y="808.3883">_COUNTRY_DIRECTOR</text><text fill="#000000" font-family="sans-serif" font-size="27.0833" lengthAdjust="spacingAndGlyphs" textLength="72.9167" x="2853.4104" y="842.454">[local]</text><path d="M2576.9458,479.2753 C2595.4958,484.7815 2614.5604,490.3544 2632.5771,495.4753 C2832.9396,552.4315 2931.8917,537.9607 3049.2438,710.0586 C3082.6146,758.9982 3092.9396,826.444 3095.5896,876.0544 " fill="none" style="stroke: #A80036; stroke-width: 2.0833333333333335;"/><polygon fill="#A80036" points="3096.0646,886.9898,3103.5758,867.8957,3095.6122,876.583,3086.9249,868.6194,3096.0646,886.9898" style="stroke: #A80036; stroke-width: 2.0833333333333335;"/><text fill="#000000" font-family="sans-serif" font-size="27.0833" lengthAdjust="spacingAndGlyphs" textLength="195.8333" x="3056.5354" y="579.8401">APPROVE_AT_</text><text fill="#000000" font-family="sans-serif" font-size="27.0833" lengthAdjust="spacingAndGlyphs" textLength="268.75" x="3020.0771" y="613.9058">CORPORATE_LEVEL</text><text fill="#000000" font-family="sans-serif" font-size="27.0833" lengthAdjust="spacingAndGlyphs" textLength="129.1667" x="3089.8688" y="647.9716">[corporate]</text><path d="M3103.55,1002.0003 C3113.5479,1086.8273 3120.9646,1250.8315 3051.3271,1364.2253 C3041.1917,1380.7273 3026.6438,1394.7023 3010.8083,1406.3086 " fill="none" style="stroke: #A80036; stroke-width: 2.0833333333333335;"/><polygon fill="#A80036" points="3001.9,1412.5128,3022.048,1408.6316,3010.4468,1406.558,3012.5204,1394.9567,3001.9,1412.5128" style="stroke: #A80036; stroke-width: 2.0833333333333335;"/><path d="M2249.7521,832.8523 C2289.5688,882.7607 2356.5271,957.5794 2430.4938,1001.7253 C2468.2833,1024.2794 2511.95,1041.6857 2554.4375,1054.9898 " fill="none" style="stroke: #A80036; stroke-width: 2.0833333333333335;"/><polygon fill="#A80036" points="2564.6292,1058.1107,2549.1423,1044.6509,2554.6693,1055.0596,2544.2606,1060.5866,2564.6292,1058.1107" style="stroke: #A80036; stroke-width: 2.0833333333333335;"/><text fill="#000000" font-family="sans-serif" font-size="27.0833" lengthAdjust="spacingAndGlyphs" textLength="200" x="2472.1604" y="939.2151">APPROVE_AS_</text><text fill="#000000" font-family="sans-serif" font-size="27.0833" lengthAdjust="spacingAndGlyphs" textLength="279.1667" x="2432.5771" y="973.2808">COUNTRY_DIRECTOR</text><path d="M2731.3625,1154.1065 C2722.5313,1211.3128 2717.8083,1300.8503 2757.5771,1364.2253 C2772.3125,1387.7107 2795.7146,1405.4044 2820.0542,1418.5065 " fill="none" style="stroke: #A80036; stroke-width: 2.0833333333333335;"/><polygon fill="#A80036" points="2829.7771,1423.4857,2816.8837,1407.5243,2820.5046,1418.7393,2809.2895,1422.3602,2829.7771,1423.4857" style="stroke: #A80036; stroke-width: 2.0833333333333335;"/><text fill="#000000" font-family="sans-serif" font-size="27.0833" lengthAdjust="spacingAndGlyphs" textLength="137.5" x="2835.7021" y="1221.5068">CONFIRM_</text><text fill="#000000" font-family="sans-serif" font-size="27.0833" lengthAdjust="spacingAndGlyphs" textLength="233.3333" x="2787.7854" y="1255.5725">BANK_ACCOUNT_</text><text fill="#000000" font-family="sans-serif" font-size="27.0833" lengthAdjust="spacingAndGlyphs" textLength="122.9167" x="2842.9938" y="1289.6383">VERIFIED</text><text fill="#000000" font-family="sans-serif" font-size="27.0833" lengthAdjust="spacingAndGlyphs" textLength="281.25" x="2767.9938" y="1323.704">[bank account verified ||</text><text fill="#000000" font-family="sans-serif" font-size="27.0833" lengthAdjust="spacingAndGlyphs" textLength="141.6667" x="2837.7854" y="1357.7698">direct debit]</text><path d="M2915.9104,1506.2336 C2915.9104,1545.1753 2915.9104,1599.2607 2915.9104,1640.6728 " fill="none" style="stroke: #A80036; stroke-width: 2.0833333333333335;"/><polygon fill="#A80036" points="2915.9104,1651.4513,2924.2438,1632.7013,2915.9104,1641.0346,2907.5771,1632.7013,2915.9104,1651.4513" style="stroke: #A80036; stroke-width: 2.0833333333333335;"/><text fill="#000000" font-family="sans-serif" font-size="27.0833" lengthAdjust="spacingAndGlyphs" textLength="62.5" x="2983.6188" y="1573.5901">PAID</text><text fill="#000000" font-family="sans-serif" font-size="27.0833" lengthAdjust="spacingAndGlyphs" textLength="177.0833" x="2934.6604" y="1607.6558">(by IBQ or DD)</text><rect fill="#FEFECE" filter="url(#fzh940j)" height="473.3724" rx="26.0417" ry="26.0417" style="stroke: #A80036; stroke-width: 3.125;" width="552.0833" x="3432.2917" y="665.625"/><rect fill="#FFFFFF" height="366.6667" rx="26.0417" ry="26.0417" style="stroke: #FFFFFF; stroke-width: 2.0833333333333335;" width="539.5833" x="3438.5417" y="766.0807"/><line style="stroke: #A80036; stroke-width: 3.125;" x1="3432.2917" x2="3984.375" y1="759.8307" y2="759.8307"/><text fill="#000000" font-family="sans-serif" font-size="29.1667" lengthAdjust="spacingAndGlyphs" textLength="231.25" x="3592.7083" y="706.3192">PaymentApproval</text><text fill="#000000" font-family="sans-serif" font-size="29.1667" lengthAdjust="spacingAndGlyphs" textLength="266.6667" x="3575" y="743.0054">StateTransitionType</text><rect fill="#FEFECE" filter="url(#fzh940j)" height="104.1667" rx="26.0417" ry="26.0417" style="stroke: #A80036; stroke-width: 3.125;" width="106.25" x="3706.25" y="786.9141"/><line style="stroke: #A80036; stroke-width: 3.125;" x1="3706.25" x2="3812.5" y1="844.4336" y2="844.4336"/><text fill="#000000" font-family="sans-serif" font-size="29.1667" lengthAdjust="spacingAndGlyphs" textLength="64.5833" x="3727.0833" y="827.6082">NEW</text><rect fill="#FEFECE" filter="url(#fzh940j)" height="104.1667" rx="26.0417" ry="26.0417" style="stroke: #A80036; stroke-width: 3.125;" width="200" x="3659.375" y="1003.5807"/><line style="stroke: #A80036; stroke-width: 3.125;" x1="3659.375" x2="3859.375" y1="1061.1003" y2="1061.1003"/><text fill="#000000" font-family="sans-serif" font-size="29.1667" lengthAdjust="spacingAndGlyphs" textLength="158.3333" x="3680.2083" y="1044.2749">APPROVED</text><ellipse cx="3476.0417" cy="838.9974" fill="#000000" filter="url(#fzh940j)" rx="20.8333" ry="20.8333" style="stroke: none; stroke-width: 2.0833333333333335;"/><path d="M3497.3377,838.9974 C3538.8231,838.9974 3631.939,838.9974 3695.2292,838.9974 " fill="none" style="stroke: #A80036; stroke-width: 2.0833333333333335;"/><polygon fill="#A80036" points="3705.8979,838.9974,3687.1479,830.6641,3695.4813,838.9974,3687.1479,847.3307,3705.8979,838.9974" style="stroke: #A80036; stroke-width: 2.0833333333333335;"/><text fill="#000000" font-family="sans-serif" font-size="27.0833" lengthAdjust="spacingAndGlyphs" textLength="168.75" x="3517.1875" y="825.4456">INSTANTIATE</text><path d="M3759.375,891.4411 C3759.375,921.6536 3759.375,960.2959 3759.375,992.2776 " fill="none" style="stroke: #A80036; stroke-width: 2.0833333333333335;"/><polygon fill="#A80036" points="3759.375,1002.8464,3767.7083,984.0964,3759.375,992.4297,3751.0417,984.0964,3759.375,1002.8464" style="stroke: #A80036; stroke-width: 2.0833333333333335;"/><text fill="#000000" font-family="sans-serif" font-size="27.0833" lengthAdjust="spacingAndGlyphs" textLength="152.0833" x="3761.4583" y="958.7789">APPROVED</text></g></svg>